<?xml version="1.0" encoding="UTF-8" standalone="no"?>
<!-- generated by Grace-5.1.25 -->

<svg
   xml:space="preserve"
   width="8.3333in"
   height="8.3333in"
   viewBox="0.0000 0.0000 600.0000 600.0000"
   version="1.1"
   id="svg280"
   sodipodi:docname="phonon.svg"
   inkscape:version="1.2.2 (b0a84865, 2022-12-01)"
   xmlns:inkscape="http://www.inkscape.org/namespaces/inkscape"
   xmlns:sodipodi="http://sodipodi.sourceforge.net/DTD/sodipodi-0.dtd"
   xmlns="http://www.w3.org/2000/svg"
   xmlns:svg="http://www.w3.org/2000/svg"><defs
   id="defs284">
  
  
  
  
  
  
  
  
  
  
  
 </defs><sodipodi:namedview
   id="namedview282"
   pagecolor="#ffffff"
   bordercolor="#000000"
   borderopacity="0.25"
   inkscape:showpageshadow="2"
   inkscape:pageopacity="0.0"
   inkscape:pagecheckerboard="0"
   inkscape:deskcolor="#d1d1d1"
   inkscape:document-units="in"
   showgrid="false"
   inkscape:zoom="0.29500119"
   inkscape:cx="415.25256"
   inkscape:cy="413.55765"
   inkscape:window-width="1623"
   inkscape:window-height="874"
   inkscape:window-x="0"
   inkscape:window-y="38"
   inkscape:window-maximized="0"
   inkscape:current-layer="svg280"><inkscape:page
     x="0"
     y="0"
     width="600"
     height="600"
     id="page697" /><inkscape:page
     x="610"
     y="0"
     width="600.00244"
     height="600.00244"
     id="page699" /></sodipodi:namedview>
 <g
   style="fill:#ffffff;fill-rule:nonzero"
   id="g134"
   transform="matrix(1,0,0,-1,0,600)">
   <path
   d="M 0,0 V 600 H 600 V 0 Z"
   id="path132" />
  </g><g
   style="fill:none;stroke:#0000ff;stroke-width:1.8;stroke-linecap:butt;stroke-linejoin:miter;stroke-dasharray:none"
   id="g142"
   transform="matrix(1,0,0,-1,0,600)">
   <path
   d="m 150,173.5916 1.8271,6e-4 1.7594,0.002 1.827,0.003 1.7594,0.004 1.8271,0.005 1.8271,0.007 1.7594,0.008 1.827,0.009 1.7594,0.0103 1.8271,0.0116 1.8271,0.0127 1.7594,0.014 1.827,0.0151 1.7594,0.0164 1.8271,0.0176 1.8271,0.0188 1.7594,0.02 1.827,0.0211 1.7594,0.0224 1.8271,0.0236 1.8271,0.0247 1.7594,0.0259 1.827,0.0271 1.7594,0.0282 1.8271,0.0294 1.8271,0.0306 1.7594,0.0318 1.827,0.0328 1.7594,0.0341 1.8271,0.0352 1.8271,0.0363 1.7594,0.0374 1.827,0.0386 1.7594,0.0397 1.8271,0.0408 1.8271,0.0419 1.7594,0.0431 1.827,0.0441 1.7594,0.0452 1.8271,0.0462 1.8271,0.0474 1.7594,0.0484 1.827,0.0494 1.7594,0.0505 1.8271,0.0516 1.8271,0.0526 1.7594,0.0536 1.827,0.0546 1.8271,0.0556 1.7594,0.0566 1.8271,0.0576 1.7594,0.0586 1.827,0.0595 1.8271,0.0605 1.7594,0.0615 1.8271,0.0623 1.7594,0.0633 1.827,0.0642 1.8271,0.065 1.7594,0.066 1.8271,0.0669 1.7594,0.0677 1.827,0.0686 1.8271,0.0694 1.7594,0.0702 1.8271,0.071 1.7594,0.0719 1.827,0.0726 1.8271,0.0734 1.7594,0.0741 1.8271,0.0749 1.7594,0.0756 1.827,0.0763 1.8271,0.077 1.7594,0.0777 1.8271,0.0783 1.7594,0.0791 1.827,0.0796 1.8271,0.0803 1.7594,0.0808 1.8271,0.0815 1.7594,0.082 1.827,0.0825 1.8271,0.0831 1.7594,0.0836 1.8271,0.0841 1.7594,0.0845 1.827,0.0851 1.8271,0.0854 1.7594,0.0859 1.8271,0.0863 1.7594,0.0866 1.827,0.087 1.8271,0.0874 1.7594,0.0877 1.8271,0.088 1.7594,0.0882 1.827,0.0885 1.8271,0.0888 1.7594,0.089 1.8271,0.0891 1.7594,0.0894 1.827,0.0895 1.8271,0.0897 1.7594,0.0897 1.8271,0.0898 1.7594,0.0899 1.827,0.0899 1.8271,0.09 1.7594,0.09 1.8271,0.0899 1.7594,0.0899 1.827,0.0898 1.8271,0.0897 1.7594,0.0895 1.8271,0.0895 1.7594,0.0892 1.827,0.0891 1.8271,0.0889 1.7594,0.0886 1.8271,0.0883 1.7594,0.0881 1.827,0.0878 1.8271,0.0874 1.7594,0.0871 1.8271,0.0866 1.7594,0.0863 1.827,0.0858 1.8271,0.0854 1.7594,0.0849 1.8271,0.0843 1.7594,0.0839 1.827,0.0832 1.8271,0.0827 1.7594,0.0821 1.8271,0.0815 1.7594,0.0808 1.827,0.0801 1.8271,0.0795 1.7594,0.0787 1.8271,0.0779 1.827,0.0771 1.7594,0.0764 1.8271,0.0756 1.7594,0.0747 1.8271,0.0738 1.827,0.0729 1.7594,0.072 1.8271,0.0711 1.7594,0.0702 1.8271,0.0691 1.827,0.0682 1.7594,0.0671 1.8271,0.066 1.7594,0.065 1.8271,0.0639 1.827,0.0628 1.7594,0.0617 1.8271,0.0604 1.7594,0.0594 1.8271,0.0581 1.827,0.057 1.7594,0.0557 1.8271,0.0544 1.7594,0.0532 1.8271,0.0519 1.827,0.0506 1.7594,0.0493 1.8271,0.0479 1.7594,0.0466 1.8271,0.0453 1.827,0.0438 1.7594,0.0424 1.8271,0.0411 1.7594,0.0396 1.8271,0.0381 1.827,0.0367 1.7594,0.0353 1.8271,0.0338 1.7594,0.0322 1.8271,0.0308 1.827,0.0293 1.7594,0.0277 1.8271,0.0262 1.7594,0.0247 1.8271,0.0231 1.827,0.0215 1.7594,0.02 1.8271,0.0184 1.7594,0.0169 1.8271,0.0152 1.827,0.0136 1.7594,0.0121 1.8271,0.0105 1.7594,0.009 1.8271,0.007 1.827,0.006 1.7594,0.004 1.8271,0.002 1.7594,8e-4"
   id="path136" />
   <path
   d="m 150,187.7839 1.8271,0.002 1.7594,0.005 1.827,0.008 1.7594,0.0108 1.8271,0.0139 1.8271,0.0169 1.7594,0.0201 1.827,0.0231 1.7594,0.0261 1.8271,0.0293 1.8271,0.0323 1.7594,0.0353 1.827,0.0384 1.7594,0.0414 1.8271,0.0445 1.8271,0.0475 1.7594,0.0505 1.827,0.0536 1.7594,0.0565 1.8271,0.0595 1.8271,0.0626 1.7594,0.0654 1.827,0.0685 1.7594,0.0714 1.8271,0.0743 1.8271,0.0773 1.7594,0.0802 1.827,0.0831 1.7594,0.086 1.8271,0.0889 1.8271,0.0917 1.7594,0.0945 1.827,0.0974 1.7594,0.1002 1.8271,0.103 1.8271,0.1058 1.7594,0.1085 1.827,0.1113 1.7594,0.1139 1.8271,0.1167 1.8271,0.1194 1.7594,0.122 1.827,0.1247 1.7594,0.1273 1.8271,0.1299 1.8271,0.1324 1.7594,0.135 1.827,0.1376 1.8271,0.14 1.7594,0.1425 1.8271,0.1449 1.7594,0.1474 1.827,0.1498 1.8271,0.1521 1.7594,0.1545 1.8271,0.1567 1.7594,0.1591 1.827,0.1613 1.8271,0.1636 1.7594,0.1657 1.8271,0.168 1.7594,0.17 1.827,0.1721 1.8271,0.1742 1.7594,0.1762 1.8271,0.1783 1.7594,0.1802 1.827,0.1821 1.8271,0.184 1.7594,0.1858 1.8271,0.1877 1.7594,0.1895 1.827,0.1912 1.8271,0.1929 1.7594,0.1946 1.8271,0.1963 1.7594,0.1977 1.827,0.1994 1.8271,0.2008 1.7594,0.2024 1.8271,0.2037 1.7594,0.2051 1.827,0.2065 1.8271,0.2077 1.7594,0.209 1.8271,0.2102 1.7594,0.2113 1.827,0.2125 1.8271,0.2135 1.7594,0.2146 1.8271,0.2155 1.7594,0.2165 1.827,0.2173 1.8271,0.2181 1.7594,0.2189 1.8271,0.2196 1.7594,0.2203 1.827,0.221 1.8271,0.2215 1.7594,0.222 1.8271,0.2225 1.7594,0.2229 1.827,0.2233 1.8271,0.2235 1.7594,0.2239 1.8271,0.2241 1.7594,0.2242 1.827,0.2242 1.8271,0.2244 1.7594,0.2242 1.8271,0.2243 1.7594,0.2241 1.827,0.2239 1.8271,0.2237 1.7594,0.2233 1.8271,0.223 1.7594,0.2226 1.827,0.2221 1.8271,0.2215 1.7594,0.221 1.8271,0.2202 1.7594,0.2197 1.827,0.2188 1.8271,0.218 1.7594,0.2171 1.8271,0.2162 1.7594,0.2152 1.827,0.2141 1.8271,0.2129 1.7594,0.2118 1.8271,0.2105 1.7594,0.2092 1.827,0.2079 1.8271,0.2064 1.7594,0.2049 1.8271,0.2034 1.7594,0.2017 1.827,0.2001 1.8271,0.1984 1.7594,0.1966 1.8271,0.1947 1.827,0.1928 1.7594,0.1908 1.8271,0.1889 1.7594,0.1867 1.8271,0.1846 1.827,0.1824 1.7594,0.1801 1.8271,0.1779 1.7594,0.1754 1.8271,0.173 1.827,0.1706 1.7594,0.168 1.8271,0.1654 1.7594,0.1628 1.8271,0.1601 1.827,0.1573 1.7594,0.1545 1.8271,0.1516 1.7594,0.1487 1.8271,0.1458 1.827,0.1428 1.7594,0.1397 1.8271,0.1366 1.7594,0.1335 1.8271,0.1302 1.827,0.127 1.7594,0.1238 1.8271,0.1203 1.7594,0.1171 1.8271,0.1136 1.827,0.1101 1.7594,0.1067 1.8271,0.1031 1.7594,0.0995 1.8271,0.096 1.827,0.0923 1.7594,0.0886 1.8271,0.0849 1.7594,0.0812 1.8271,0.0774 1.827,0.0736 1.7594,0.0698 1.8271,0.066 1.7594,0.0621 1.8271,0.0581 1.827,0.0543 1.7594,0.0504 1.8271,0.0463 1.7594,0.0424 1.8271,0.0384 1.827,0.0344 1.7594,0.0304 1.8271,0.0264 1.7594,0.0223 1.8271,0.0182 1.827,0.0143 1.7594,0.0102 1.8271,0.006 1.7594,0.002"
   id="path138" />
   <path
   d="m 150,243.0577 1.8271,-6e-4 1.7594,-0.002 1.827,-0.003 1.7594,-0.004 1.8271,-0.005 1.8271,-0.006 1.7594,-0.007 1.827,-0.009 1.7594,-0.01 1.8271,-0.0109 1.8271,-0.0122 1.7594,-0.0133 1.827,-0.0145 1.7594,-0.0157 1.8271,-0.0169 1.8271,-0.0181 1.7594,-0.0193 1.827,-0.0205 1.7594,-0.0217 1.8271,-0.023 1.8271,-0.0241 1.7594,-0.0255 1.827,-0.0266 1.7594,-0.028 1.8271,-0.0292 1.8271,-0.0304 1.7594,-0.0317 1.827,-0.0331 1.7594,-0.0342 1.8271,-0.0356 1.8271,-0.0369 1.7594,-0.0382 1.827,-0.0394 1.7594,-0.0408 1.8271,-0.0421 1.8271,-0.0434 1.7594,-0.0447 1.827,-0.046 1.7594,-0.0474 1.8271,-0.0486 1.8271,-0.05 1.7594,-0.0512 1.827,-0.0526 1.7594,-0.0538 1.8271,-0.0551 1.8271,-0.0565 1.7594,-0.0577 1.827,-0.059 1.8271,-0.0603 1.7594,-0.0615 1.8271,-0.0627 1.7594,-0.0641 1.827,-0.0652 1.8271,-0.0664 1.7594,-0.0676 1.8271,-0.0688 1.7594,-0.07 1.827,-0.0711 1.8271,-0.0722 1.7594,-0.0733 1.8271,-0.0745 1.7594,-0.0755 1.827,-0.0765 1.8271,-0.0776 1.7594,-0.0786 1.8271,-0.0795 1.7594,-0.0805 1.827,-0.0815 1.8271,-0.0823 1.7594,-0.0832 1.8271,-0.084 1.7594,-0.0849 1.827,-0.0857 1.8271,-0.0865 1.7594,-0.0872 1.8271,-0.0879 1.7594,-0.0885 1.827,-0.0893 1.8271,-0.0899 1.7594,-0.0904 1.8271,-0.091 1.7594,-0.0915 1.827,-0.0921 1.8271,-0.0924 1.7594,-0.0929 1.8271,-0.0933 1.7594,-0.0937 1.827,-0.0941 1.8271,-0.0944 1.7594,-0.0946 1.8271,-0.0949 1.7594,-0.0951 1.827,-0.0953 1.8271,-0.0954 1.7594,-0.0956 1.8271,-0.0957 1.7594,-0.0957 1.827,-0.0958 1.8271,-0.0957 1.7594,-0.0958 1.8271,-0.0956 1.7594,-0.0956 1.827,-0.0955 1.8271,-0.0953 1.7594,-0.0952 1.8271,-0.0949 1.7594,-0.0947 1.827,-0.0944 1.8271,-0.0942 1.7594,-0.0938 1.8271,-0.0935 1.7594,-0.0932 1.827,-0.0927 1.8271,-0.0923 1.7594,-0.0919 1.8271,-0.0914 1.7594,-0.0909 1.827,-0.0903 1.8271,-0.0899 1.7594,-0.0893 1.8271,-0.0887 1.7594,-0.0881 1.827,-0.0874 1.8271,-0.0868 1.7594,-0.0861 1.8271,-0.0855 1.7594,-0.0847 1.827,-0.0839 1.8271,-0.0833 1.7594,-0.0824 1.8271,-0.0817 1.7594,-0.0808 1.827,-0.08 1.8271,-0.0792 1.7594,-0.0782 1.8271,-0.0775 1.7594,-0.0765 1.827,-0.0756 1.8271,-0.0746 1.7594,-0.0737 1.8271,-0.0728 1.827,-0.0718 1.7594,-0.0708 1.8271,-0.0698 1.7594,-0.0688 1.8271,-0.0677 1.827,-0.0667 1.7594,-0.0657 1.8271,-0.0646 1.7594,-0.0635 1.8271,-0.0624 1.827,-0.0613 1.7594,-0.0602 1.8271,-0.0591 1.7594,-0.058 1.8271,-0.0568 1.827,-0.0556 1.7594,-0.0545 1.8271,-0.0534 1.7594,-0.0522 1.8271,-0.0509 1.827,-0.0498 1.7594,-0.0486 1.8271,-0.0473 1.7594,-0.0462 1.8271,-0.0449 1.827,-0.0436 1.7594,-0.0425 1.8271,-0.0412 1.7594,-0.04 1.8271,-0.0387 1.827,-0.0374 1.7594,-0.0362 1.8271,-0.0349 1.7594,-0.0336 1.8271,-0.0323 1.827,-0.0311 1.7594,-0.0298 1.8271,-0.0285 1.7594,-0.0271 1.8271,-0.0259 1.827,-0.0245 1.7594,-0.0233 1.8271,-0.0219 1.7594,-0.0207 1.8271,-0.0193 1.827,-0.0179 1.7594,-0.0167 1.8271,-0.0154 1.7594,-0.014 1.8271,-0.0126 1.827,-0.0114 1.7594,-0.01 1.8271,-0.009 1.7594,-0.007 1.8271,-0.006 1.827,-0.005 1.7594,-0.003 1.8271,-0.002 1.7594,-7e-4"
   id="path140" />
  </g><g
   style="fill:none;stroke:#ff0000;stroke-width:3.6;stroke-linecap:butt;stroke-linejoin:miter;stroke-dasharray:none"
   id="g146"
   transform="matrix(1,0,0,-1,0,600)">
   <path
   d="m 150,256.3338 1.8271,-10e-4 1.7594,-0.003 1.827,-0.005 1.7594,-0.007 1.8271,-0.009 1.8271,-0.0111 1.7594,-0.0132 1.827,-0.0151 1.7594,-0.0171 1.8271,-0.0192 1.8271,-0.0211 1.7594,-0.0231 1.827,-0.0251 1.7594,-0.027 1.8271,-0.029 1.8271,-0.0308 1.7594,-0.0329 1.827,-0.0347 1.7594,-0.0366 1.8271,-0.0385 1.8271,-0.0403 1.7594,-0.0422 1.827,-0.044 1.7594,-0.0458 1.8271,-0.0476 1.8271,-0.0494 1.7594,-0.051 1.827,-0.0529 1.7594,-0.0544 1.8271,-0.0563 1.8271,-0.0578 1.7594,-0.0595 1.827,-0.0611 1.7594,-0.0626 1.8271,-0.0642 1.8271,-0.0657 1.7594,-0.0673 1.827,-0.0687 1.7594,-0.0701 1.8271,-0.0716 1.8271,-0.0729 1.7594,-0.0743 1.827,-0.0756 1.7594,-0.0769 1.8271,-0.0781 1.8271,-0.0794 1.7594,-0.0806 1.827,-0.0817 1.8271,-0.0829 1.7594,-0.0839 1.8271,-0.085 1.7594,-0.0861 1.827,-0.087 1.8271,-0.088 1.7594,-0.0889 1.8271,-0.0898 1.7594,-0.0907 1.827,-0.0915 1.8271,-0.0922 1.7594,-0.093 1.8271,-0.0938 1.7594,-0.0944 1.827,-0.0951 1.8271,-0.0956 1.7594,-0.0963 1.8271,-0.0968 1.7594,-0.0973 1.827,-0.0978 1.8271,-0.0982 1.7594,-0.0986 1.8271,-0.0991 1.7594,-0.0993 1.827,-0.0996 1.8271,-0.0999 1.7594,-0.1002 1.8271,-0.1003 1.7594,-0.1005 1.827,-0.1007 1.8271,-0.1007 1.7594,-0.1009 1.8271,-0.1009 1.7594,-0.1008 1.827,-0.1009 1.8271,-0.1007 1.7594,-0.1007 1.8271,-0.1007 1.7594,-0.1004 1.827,-0.1004 1.8271,-0.1001 1.7594,-0.1 1.8271,-0.0997 1.7594,-0.0994 1.827,-0.0991 1.8271,-0.0988 1.7594,-0.0984 1.8271,-0.0981 1.7594,-0.0976 1.827,-0.0972 1.8271,-0.0968 1.7594,-0.0963 1.8271,-0.0959 1.7594,-0.0952 1.827,-0.0948 1.8271,-0.0942 1.7594,-0.0936 1.8271,-0.0931 1.7594,-0.0924 1.827,-0.0917 1.8271,-0.0912 1.7594,-0.0904 1.8271,-0.0898 1.7594,-0.0891 1.827,-0.0883 1.8271,-0.0876 1.7594,-0.0868 1.8271,-0.0861 1.7594,-0.0853 1.827,-0.0845 1.8271,-0.0836 1.7594,-0.0828 1.8271,-0.082 1.7594,-0.0812 1.827,-0.0803 1.8271,-0.0794 1.7594,-0.0785 1.8271,-0.0777 1.7594,-0.0767 1.827,-0.0758 1.8271,-0.0749 1.7594,-0.0739 1.8271,-0.0731 1.7594,-0.072 1.827,-0.0711 1.8271,-0.0701 1.7594,-0.0692 1.8271,-0.0682 1.7594,-0.0672 1.827,-0.0662 1.8271,-0.0651 1.7594,-0.0642 1.8271,-0.0632 1.827,-0.0621 1.7594,-0.0612 1.8271,-0.0601 1.7594,-0.0591 1.8271,-0.058 1.827,-0.057 1.7594,-0.056 1.8271,-0.0549 1.7594,-0.0539 1.8271,-0.0528 1.827,-0.0518 1.7594,-0.0507 1.8271,-0.0497 1.7594,-0.0485 1.8271,-0.0476 1.827,-0.0465 1.7594,-0.0454 1.8271,-0.0443 1.7594,-0.0433 1.8271,-0.0422 1.827,-0.0412 1.7594,-0.04 1.8271,-0.039 1.7594,-0.038 1.8271,-0.0368 1.827,-0.0358 1.7594,-0.0348 1.8271,-0.0336 1.7594,-0.0326 1.8271,-0.0315 1.827,-0.0304 1.7594,-0.0294 1.8271,-0.0283 1.7594,-0.0272 1.8271,-0.0261 1.827,-0.0251 1.7594,-0.024 1.8271,-0.023 1.7594,-0.0218 1.8271,-0.0208 1.827,-0.0197 1.7594,-0.0187 1.8271,-0.0176 1.7594,-0.0165 1.8271,-0.0154 1.827,-0.0144 1.7594,-0.0134 1.8271,-0.0122 1.7594,-0.0112 1.8271,-0.0101 1.827,-0.009 1.7594,-0.008 1.8271,-0.007 1.7594,-0.006 1.8271,-0.005 1.827,-0.004 1.7594,-0.003 1.8271,-0.002 1.7594,-5e-4"
   id="path144" />
  </g><g
   style="fill:none;stroke:#0000ff;stroke-width:1.8;stroke-linecap:butt;stroke-linejoin:miter;stroke-dasharray:none"
   id="g184"
   transform="matrix(1,0,0,-1,0,600)">
   <path
   d="m 150,299.8853 1.8271,0.1369 1.7594,0.1776 1.827,0.1336 1.7594,0.1272 1.8271,0.1245 1.8271,0.1233 1.7594,0.1227 1.827,0.1222 1.7594,0.1222 1.8271,0.122 1.8271,0.122 1.7594,0.1222 1.827,0.1223 1.7594,0.1224 1.8271,0.1225 1.8271,0.1229 1.7594,0.123 1.827,0.1233 1.7594,0.1236 1.8271,0.1238 1.8271,0.1241 1.7594,0.1244 1.827,0.1248 1.7594,0.1251 1.8271,0.1254 1.8271,0.1257 1.7594,0.1261 1.827,0.1265 1.7594,0.1268 1.8271,0.1271 1.8271,0.1275 1.7594,0.1279 1.827,0.1282 1.7594,0.1285 1.8271,0.1289 1.8271,0.1292 1.7594,0.1296 1.827,0.1299 1.7594,0.1303 1.8271,0.1305 1.8271,0.1309 1.7594,0.1311 1.827,0.1315 1.7594,0.1317 1.8271,0.1321 1.8271,0.1323 1.7594,0.1325 1.827,0.1327 1.8271,0.1329 1.7594,0.1332 1.8271,0.1333 1.7594,0.1335 1.827,0.1337 1.8271,0.1338 1.7594,0.1339 1.8271,0.1341 1.7594,0.1341 1.827,0.1342 1.8271,0.1342 1.7594,0.1343 1.8271,0.1343 1.7594,0.1343 1.827,0.1343 1.8271,0.1343 1.7594,0.1341 1.8271,0.1341 1.7594,0.1341 1.827,0.1338 1.8271,0.1338 1.7594,0.1336 1.8271,0.1334 1.7594,0.1333 1.827,0.133 1.8271,0.1328 1.7594,0.1325 1.8271,0.1323 1.7594,0.132 1.827,0.1317 1.8271,0.1313 1.7594,0.131 1.8271,0.1307 1.7594,0.1302 1.827,0.1298 1.8271,0.1299 1.7594,0.129 1.8271,0.1285 1.7594,0.1281 1.827,0.1275 1.8271,0.1271 1.7594,0.1265 1.8271,0.126 1.7594,0.1254 1.827,0.1248 1.8271,0.1243 1.7594,0.1236 1.8271,0.123 1.7594,0.1223 1.827,0.1217 1.8271,0.121 1.7594,0.1204 1.8271,0.1196 1.7594,0.1188 1.827,0.1182 1.8271,0.1174 1.7594,0.1167 1.8271,0.1158 1.7594,0.115 1.827,0.1143 1.8271,0.1134 1.7594,0.1126 1.8271,0.1117 1.7594,0.1108 1.827,0.11 1.8271,0.1091 1.7594,0.1082 1.8271,0.1073 1.7594,0.1064 1.827,0.1054 1.8271,0.1044 1.7594,0.1035 1.8271,0.1025 1.7594,0.1015 1.827,0.1006 1.8271,0.0995 1.7594,0.0985 1.8271,0.0974 1.7594,0.0967 1.827,0.0953 1.8271,0.0944 1.7594,0.0932 1.8271,0.0921 1.7594,0.091 1.827,0.09 1.8271,0.0888 1.7594,0.0877 1.8271,0.0866 1.7594,0.0854 1.827,0.0842 1.8271,0.0831 1.7594,0.0819 1.8271,0.0808 1.827,0.0796 1.7594,0.0784 1.8271,0.0771 1.7594,0.0759 1.8271,0.0748 1.827,0.0735 1.7594,0.0723 1.8271,0.071 1.7594,0.0698 1.8271,0.0684 1.827,0.0673 1.7594,0.066 1.8271,0.0646 1.7594,0.0635 1.8271,0.0621 1.827,0.0608 1.7594,0.0594 1.8271,0.0582 1.7594,0.0569 1.8271,0.0556 1.827,0.0541 1.7594,0.0529 1.8271,0.0516 1.7594,0.0502 1.8271,0.0488 1.827,0.0474 1.7594,0.0462 1.8271,0.0447 1.7594,0.0434 1.8271,0.042 1.827,0.0406 1.7594,0.0392 1.8271,0.0378 1.7594,0.0365 1.8271,0.035 1.827,0.0337 1.7594,0.0322 1.8271,0.0309 1.7594,0.0294 1.8271,0.028 1.827,0.0266 1.7594,0.0252 1.8271,0.0237 1.7594,0.0223 1.8271,0.0209 1.827,0.0194 1.7594,0.0181 1.8271,0.0165 1.7594,0.0152 1.8271,0.0137 1.827,0.0123 1.7594,0.0108 1.8271,0.009 1.7594,0.008 1.8271,0.006 1.827,0.005 1.7594,0.004 1.8271,0.002 1.7594,7e-4"
   id="path148" />
   <path
   d="m 150,299.9808 1.8271,0.4426 1.7594,0.3307 1.827,0.3469 1.7594,0.3524 1.8271,0.355 1.8271,0.3563 1.7594,0.3573 1.827,0.358 1.7594,0.3587 1.8271,0.3591 1.8271,0.3597 1.7594,0.3602 1.827,0.3607 1.7594,0.3612 1.8271,0.3618 1.8271,0.3623 1.7594,0.3628 1.827,0.3635 1.7594,0.3641 1.8271,0.3648 1.8271,0.3654 1.7594,0.366 1.827,0.3667 1.7594,0.3675 1.8271,0.3682 1.8271,0.3688 1.7594,0.3697 1.827,0.3704 1.7594,0.3712 1.8271,0.3719 1.8271,0.3727 1.7594,0.3735 1.827,0.3742 1.7594,0.375 1.8271,0.3759 1.8271,0.3766 1.7594,0.3773 1.827,0.3782 1.7594,0.3789 1.8271,0.3797 1.8271,0.3804 1.7594,0.3812 1.827,0.3819 1.7594,0.3826 1.8271,0.3833 1.8271,0.384 1.7594,0.3846 1.827,0.3853 1.8271,0.3859 1.7594,0.3866 1.8271,0.3871 1.7594,0.3876 1.827,0.3883 1.8271,0.3887 1.7594,0.3892 1.8271,0.3897 1.7594,0.3901 1.827,0.3906 1.8271,0.3909 1.7594,0.3913 1.8271,0.3917 1.7594,0.3919 1.827,0.3922 1.8271,0.3924 1.7594,0.3927 1.8271,0.3928 1.7594,0.393 1.827,0.3931 1.8271,0.3933 1.7594,0.3932 1.8271,0.3933 1.7594,0.3934 1.827,0.3932 1.8271,0.3932 1.7594,0.3932 1.8271,0.3929 1.7594,0.3929 1.827,0.3927 1.8271,0.3924 1.7594,0.3923 1.8271,0.3919 1.7594,0.3916 1.827,0.3913 1.8271,0.3913 1.7594,0.3905 1.8271,0.3902 1.7594,0.3897 1.827,0.3892 1.8271,0.3887 1.7594,0.3881 1.8271,0.3877 1.7594,0.387 1.827,0.3864 1.8271,0.3858 1.7594,0.385 1.8271,0.3844 1.7594,0.3837 1.827,0.383 1.8271,0.3822 1.7594,0.3813 1.8271,0.3805 1.7594,0.3797 1.827,0.3788 1.8271,0.3779 1.7594,0.3769 1.8271,0.3761 1.7594,0.375 1.827,0.3741 1.8271,0.373 1.7594,0.3719 1.8271,0.3709 1.7594,0.3698 1.827,0.3686 1.8271,0.3675 1.7594,0.3663 1.8271,0.3651 1.7594,0.3639 1.827,0.3626 1.8271,0.3613 1.7594,0.36 1.8271,0.3587 1.7594,0.3573 1.827,0.356 1.8271,0.3545 1.7594,0.3531 1.8271,0.3516 1.7594,0.35 1.827,0.3486 1.8271,0.347 1.7594,0.3454 1.8271,0.3437 1.7594,0.3421 1.827,0.3403 1.8271,0.3387 1.7594,0.3368 1.8271,0.3351 1.7594,0.3332 1.827,0.3313 1.8271,0.3294 1.7594,0.3275 1.8271,0.3254 1.827,0.3233 1.7594,0.3213 1.8271,0.3191 1.7594,0.3168 1.8271,0.3146 1.827,0.3123 1.7594,0.3099 1.8271,0.3074 1.7594,0.305 1.8271,0.3024 1.827,0.2997 1.7594,0.2971 1.8271,0.2942 1.7594,0.2914 1.8271,0.2885 1.827,0.2853 1.7594,0.2823 1.8271,0.279 1.7594,0.2757 1.8271,0.2722 1.827,0.2687 1.7594,0.2634 1.8271,-0.009 1.7594,-0.0529 1.8271,-0.0521 1.827,-0.0511 1.7594,-0.0502 1.8271,-0.0491 1.7594,-0.048 1.8271,-0.0468 1.827,-0.0457 1.7594,-0.0444 1.8271,-0.0432 1.7594,-0.0419 1.8271,-0.0406 1.827,-0.0392 1.7594,-0.0378 1.8271,-0.0364 1.7594,-0.0349 1.8271,-0.0334 1.827,-0.0319 1.7594,-0.0303 1.8271,-0.0288 1.7594,-0.0271 1.8271,-0.0256 1.827,-0.0238 1.7594,-0.0222 1.8271,-0.0205 1.7594,-0.0187 1.8271,-0.0171 1.827,-0.0153 1.7594,-0.0135 1.8271,-0.0117 1.7594,-0.01 1.8271,-0.008 1.827,-0.006 1.7594,-0.004 1.8271,-0.003 1.7594,-9e-4"
   id="path150" />
   <path
   d="m 150,300.1928 1.8271,0.3639 1.7594,0.5743 1.827,0.5703 1.7594,0.5693 1.8271,0.5688 1.8271,0.5686 1.7594,0.5685 1.827,0.5682 1.7594,0.5681 1.8271,0.568 1.8271,0.5678 1.7594,0.5677 1.827,0.5675 1.7594,0.5673 1.8271,0.5672 1.8271,0.567 1.7594,0.5667 1.827,0.5666 1.7594,0.5663 1.8271,0.5661 1.8271,0.5658 1.7594,0.5656 1.827,0.5653 1.7594,0.565 1.8271,0.5647 1.8271,0.5644 1.7594,0.5641 1.827,0.5637 1.7594,0.5634 1.8271,0.563 1.8271,0.5627 1.7594,0.5622 1.827,0.5619 1.7594,0.5614 1.8271,0.5611 1.8271,0.5606 1.7594,0.5601 1.827,0.5597 1.7594,0.5592 1.8271,0.5587 1.8271,0.5582 1.7594,0.5578 1.827,0.5571 1.7594,0.5566 1.8271,0.5564 1.8271,0.5555 1.7594,0.555 1.827,0.5544 1.8271,0.5537 1.7594,0.5531 1.8271,0.5525 1.7594,0.5519 1.827,0.5511 1.8271,0.5505 1.7594,0.5499 1.8271,0.5491 1.7594,0.5484 1.827,0.5477 1.8271,0.5469 1.7594,0.5462 1.8271,0.5454 1.7594,0.5447 1.827,0.5438 1.8271,0.543 1.7594,0.5422 1.8271,0.5414 1.7594,0.5404 1.827,0.5396 1.8271,0.5387 1.7594,0.5379 1.8271,0.5369 1.7594,0.5359 1.827,0.5351 1.8271,0.5341 1.7594,0.533 1.8271,0.5321 1.7594,0.5311 1.827,0.5301 1.8271,0.529 1.7594,0.5279 1.8271,0.5269 1.7594,0.5258 1.827,0.5246 1.8271,0.5236 1.7594,0.5224 1.8271,0.5212 1.7594,0.52 1.827,0.5188 1.8271,0.5175 1.7594,0.5164 1.8271,0.5151 1.7594,0.5138 1.827,0.5124 1.8271,0.5112 1.7594,0.5098 1.8271,0.5085 1.7594,0.507 1.827,0.5057 1.8271,0.5042 1.7594,0.5027 1.8271,0.5013 1.7594,0.4998 1.827,0.4982 1.8271,0.4967 1.7594,0.4951 1.8271,0.4936 1.7594,0.4918 1.827,0.4902 1.8271,0.4885 1.7594,0.4869 1.8271,0.485 1.7594,0.4833 1.827,0.4815 1.8271,0.4796 1.7594,0.4609 1.8271,-0.0507 1.7594,-0.0516 1.827,-0.0523 1.8271,-0.053 1.7594,-0.0538 1.8271,-0.0544 1.7594,-0.055 1.827,-0.0558 1.8271,-0.0563 1.7594,-0.0569 1.8271,-0.0576 1.7594,-0.058 1.827,-0.0586 1.8271,-0.0591 1.7594,-0.0596 1.8271,-0.06 1.7594,-0.0604 1.827,-0.0608 1.8271,-0.0611 1.7594,-0.0615 1.8271,-0.0618 1.7594,-0.062 1.827,-0.0622 1.8271,-0.0624 1.7594,-0.0626 1.8271,-0.0626 1.827,-0.0628 1.7594,-0.0628 1.8271,-0.0628 1.7594,-0.0627 1.8271,-0.0627 1.827,-0.0625 1.7594,-0.0624 1.8271,-0.0622 1.7594,-0.0619 1.8271,-0.0617 1.827,-0.0613 1.7594,-0.0609 1.8271,-0.0605 1.7594,-0.0601 1.8271,-0.0596 1.827,-0.059 1.7594,-0.0584 1.8271,-0.0578 1.7594,-0.0571 1.8271,-0.0564 1.827,-0.0555 1.7594,-0.0532 1.8271,0.2159 1.7594,0.2572 1.8271,0.2534 1.827,0.2492 1.7594,0.2448 1.8271,0.2404 1.7594,0.2359 1.8271,0.231 1.827,0.226 1.7594,0.2209 1.8271,0.2156 1.7594,0.2101 1.8271,0.2045 1.827,0.1984 1.7594,0.1924 1.8271,0.1861 1.7594,0.1795 1.8271,0.1727 1.827,0.1657 1.7594,0.1585 1.8271,0.1511 1.7594,0.1434 1.8271,0.1354 1.827,0.1273 1.7594,0.1189 1.8271,0.1103 1.7594,0.1016 1.8271,0.0925 1.827,0.0833 1.7594,0.0741 1.8271,0.0644 1.7594,0.0416 1.8271,-0.007 1.827,-0.005 1.7594,-0.004 1.8271,-0.002 1.7594,-7e-4"
   id="path152" />
   <path
   d="m 150,360.662 1.8271,0.002 1.7594,0.007 1.827,0.0123 1.7594,0.0171 1.8271,0.0221 1.8271,0.0271 1.7594,0.0319 1.827,0.0367 1.7594,0.0417 1.8271,0.0466 1.8271,0.0513 1.7594,0.0562 1.827,0.0611 1.7594,0.0658 1.8271,0.0706 1.8271,0.0754 1.7594,0.0802 1.827,0.0849 1.7594,0.0895 1.8271,0.0943 1.8271,0.0989 1.7594,0.1036 1.827,0.1081 1.7594,0.1128 1.8271,0.1173 1.8271,0.1218 1.7594,0.1262 1.827,0.1308 1.7594,0.1352 1.8271,0.1396 1.8271,0.1441 1.7594,0.1482 1.827,0.1526 1.7594,0.1568 1.8271,0.161 1.8271,0.009 1.7594,7e-4 1.827,5e-4 1.7594,4e-4 1.8271,2e-4 h 1.8271 l 1.7594,-3e-4 1.827,-4e-4 1.7594,-8e-4 1.8271,-0.001 1.8271,-10e-4 1.7594,-0.002 1.827,-0.002 1.8271,-0.002 1.7594,-0.003 1.8271,-0.003 1.7594,-0.003 1.827,-0.004 1.8271,-0.004 1.7594,-0.005 1.8271,-0.005 1.7594,-0.005 1.827,-0.006 1.8271,-0.006 1.7594,-0.007 1.8271,-0.007 1.7594,-0.008 1.827,-0.009 1.8271,-0.009 1.7594,-0.01 1.8271,-0.0102 1.7594,-0.0108 1.827,-0.0115 1.8271,-0.0121 1.7594,-0.0127 1.8271,-0.0134 1.7594,-0.0141 1.827,-0.0148 1.8271,-0.0155 1.7594,-0.0162 1.8271,-0.0169 1.7594,-0.0177 1.827,-0.0185 1.8271,-0.0192 1.7594,-0.0201 1.8271,-0.0208 1.7594,-0.0216 1.827,-0.0224 1.8271,-0.0233 1.7594,-0.024 1.8271,-0.025 1.7594,-0.0257 1.827,-0.0267 1.8271,-0.0275 1.7594,-0.0283 1.8271,-0.0292 1.7594,-0.0301 1.827,-0.031 1.8271,-0.0319 1.7594,-0.0328 1.8271,-0.0336 1.7594,-0.0346 1.827,-0.0355 1.8271,-0.0363 1.7594,-0.0372 1.8271,-0.0382 1.7594,-0.039 1.827,-0.0399 1.8271,-0.0409 1.7594,-0.0416 1.8271,-0.0426 1.7594,-0.0434 1.827,-0.0442 1.8271,-0.0452 1.7594,-0.046 1.8271,-0.0468 1.7594,-0.0476 1.827,-0.0485 1.8271,-0.0492 1.7594,-0.0332 1.8271,0.4759 1.7594,0.4739 1.827,0.472 1.8271,0.47 1.7594,0.4679 1.8271,0.4658 1.7594,0.4638 1.827,0.4615 1.8271,0.4593 1.7594,0.4571 1.8271,0.4547 1.7594,0.4523 1.827,0.4481 1.8271,0.0632 1.7594,-0.085 1.8271,-0.0849 1.7594,-0.0842 1.827,-0.0836 1.8271,-0.083 1.7594,-0.0821 1.8271,-0.0815 1.7594,-0.0807 1.827,-0.0799 1.8271,-0.0792 1.7594,-0.0782 1.8271,-0.0775 1.827,-0.0766 1.7594,-0.0757 1.8271,-0.0748 1.7594,-0.0739 1.8271,-0.0729 1.827,-0.0719 1.7594,-0.071 1.8271,-0.07 1.7594,-0.069 1.8271,-0.0678 1.827,-0.0669 1.7594,-0.0658 1.8271,-0.0647 1.7594,-0.0636 1.8271,-0.0624 1.827,-0.0614 1.7594,-0.0601 1.8271,-0.059 1.7594,-0.0578 1.8271,-0.0565 1.827,-0.0554 1.7594,-0.0541 1.8271,-0.0529 1.7594,-0.0516 1.8271,-0.0503 1.827,-0.0489 1.7594,-0.0478 1.8271,-0.0463 1.7594,-0.0451 1.8271,-0.0436 1.827,-0.0424 1.7594,-0.0409 1.8271,-0.0395 1.7594,-0.0382 1.8271,-0.0368 1.827,-0.0353 1.7594,-0.0339 1.8271,-0.0325 1.7594,-0.031 1.8271,-0.0295 1.827,-0.0282 1.7594,-0.0266 1.8271,-0.0251 1.7594,-0.0237 1.8271,-0.0222 1.827,-0.0206 1.7594,-0.0192 1.8271,-0.0176 1.7594,-0.0161 1.8271,-0.0147 1.827,-0.0131 1.7594,-0.0115 1.8271,-0.01 1.7594,0.005 1.8271,0.045 1.827,0.0352 1.7594,0.0251 1.8271,0.0151 1.7594,0.005"
   id="path154" />
   <path
   d="m 150,363.5592 1.8271,1e-4 1.7594,10e-5 1.827,3e-4 1.7594,4e-4 1.8271,4e-4 1.8271,7e-4 1.7594,7e-4 1.827,8e-4 1.7594,9e-4 1.8271,10e-4 1.8271,0.001 1.7594,10e-4 1.827,0.001 1.7594,10e-4 1.8271,0.002 1.8271,0.002 1.7594,10e-4 1.827,0.002 1.7594,0.002 1.8271,0.002 1.8271,0.002 1.7594,0.002 1.827,0.002 1.7594,0.002 1.8271,0.002 1.8271,0.002 1.7594,0.002 1.827,0.002 1.7594,0.002 1.8271,0.002 1.8271,10e-4 1.7594,0.001 1.827,10e-4 1.7594,10e-4 1.8271,0.001 1.8271,0.157 1.7594,0.1694 1.827,0.1734 1.7594,0.1775 1.8271,0.1815 1.8271,0.1855 1.7594,0.1895 1.827,0.1934 1.7594,0.1972 1.8271,0.201 1.8271,0.2049 1.7594,0.2085 1.827,0.2123 1.8271,0.2159 1.7594,0.2195 1.8271,0.2231 1.7594,0.2266 1.827,0.23 1.8271,0.2335 1.7594,0.2369 1.8271,0.2402 1.7594,0.2436 1.827,0.2467 1.8271,0.25 1.7594,0.2532 1.8271,0.2562 1.7594,0.2594 1.827,0.2624 1.8271,0.2653 1.7594,0.2683 1.8271,0.2713 1.7594,0.274 1.827,0.2769 1.8271,0.2797 1.7594,0.2823 1.8271,0.2851 1.7594,0.2876 1.827,0.2903 1.8271,0.2928 1.7594,0.2948 1.8271,-0.009 1.7594,-0.0876 1.827,-0.0882 1.8271,-0.0887 1.7594,-0.0892 1.8271,-0.0897 1.7594,-0.0901 1.827,-0.0906 1.8271,-0.0909 1.7594,-0.0913 1.8271,-0.0918 1.7594,-0.092 1.827,-0.0923 1.8271,-0.0927 1.7594,-0.0929 1.8271,-0.0932 1.7594,-0.0934 1.827,-0.0936 1.8271,-0.0938 1.7594,-0.0939 1.8271,-0.0941 1.7594,-0.0942 1.827,-0.0943 1.8271,-0.0944 1.7594,-0.0945 1.8271,-0.0945 1.7594,-0.0944 1.827,-0.0945 1.8271,-0.0944 1.7594,-0.0944 1.8271,-0.0943 1.7594,-0.0942 1.827,-0.094 1.8271,-0.0939 1.7594,-0.0937 1.8271,-0.0936 1.7594,-0.0933 1.827,-0.0931 1.8271,-0.0928 1.7594,-0.0926 1.8271,-0.0922 1.7594,-0.0919 1.827,-0.0916 1.8271,-0.0912 1.7594,-0.0907 1.8271,-0.0904 1.7594,-0.0899 1.827,-0.0895 1.8271,-0.0889 1.7594,-0.0884 1.8271,-0.0879 1.7594,-0.0872 1.827,-0.0848 1.8271,0.2983 1.7594,0.4447 1.8271,0.4426 1.7594,0.44 1.827,0.4374 1.8271,0.4348 1.7594,0.4321 1.8271,0.4293 1.7594,0.4264 1.827,0.4235 1.8271,0.4205 1.7594,0.4174 1.8271,0.4143 1.827,0.4111 1.7594,0.4079 1.8271,0.4044 1.7594,0.4011 1.8271,0.3976 1.827,0.3939 1.7594,0.2441 1.8271,-0.0278 1.7594,-0.0273 1.8271,-0.027 1.827,-0.0265 1.7594,-0.0261 1.8271,-0.0258 1.7594,-0.0253 1.8271,-0.0248 1.827,-0.0244 1.7594,-0.0239 1.8271,-0.0235 1.7594,-0.0231 1.8271,-0.0225 1.827,-0.0221 1.7594,-0.0216 1.8271,-0.0211 1.7594,-0.0205 1.8271,-0.0201 1.827,-0.0196 1.7594,-0.019 1.8271,-0.0186 1.7594,-0.018 1.8271,-0.0175 1.827,-0.0169 1.7594,-0.0164 1.8271,-0.0158 1.7594,-0.0153 1.8271,-0.0147 1.827,-0.0142 1.7594,-0.0136 1.8271,-0.013 1.7594,-0.0124 1.8271,-0.0118 1.827,-0.0113 1.7594,-0.0107 1.8271,-0.0101 1.7594,-0.01 1.8271,-0.009 1.827,-0.008 1.7594,-0.008 1.8271,-0.007 1.7594,-0.007 1.8271,-0.006 1.827,-0.005 1.7594,-0.005 1.8271,-0.004 1.7594,-0.003 1.8271,-0.003 1.827,-0.002 1.7594,-0.002 1.8271,-9e-4 1.7594,-3e-4"
   id="path156" />
   <path
   d="m 150,376.8009 1.8271,-7e-4 1.7594,-0.002 1.827,-0.004 1.7594,-0.005 1.8271,-0.007 1.8271,-0.008 1.7594,-0.01 1.827,-0.0111 1.7594,-0.0127 1.8271,-0.014 1.8271,-0.0156 1.7594,-0.0171 1.827,-0.0184 1.7594,-0.02 1.8271,-0.0213 1.8271,-0.0229 1.7594,-0.0243 1.827,-0.0257 1.7594,-0.0271 1.8271,-0.0286 1.8271,-0.0299 1.7594,-0.0314 1.827,-0.0327 1.7594,-0.0342 1.8271,-0.0355 1.8271,-0.0369 1.7594,-0.0382 1.827,-0.0396 1.7594,-0.0409 1.8271,-0.0423 1.8271,-0.0436 1.7594,-0.0449 1.827,-0.0461 1.7594,-0.0475 1.8271,-0.0486 1.8271,-0.05 1.7594,-0.0512 1.827,-0.0524 1.7594,-0.0537 1.8271,-0.0549 1.8271,-0.056 1.7594,-0.0573 1.827,-0.0583 1.7594,-0.0595 1.8271,-0.0607 1.8271,-0.0617 1.7594,-0.0629 1.827,-0.064 1.8271,-0.065 1.7594,-0.0661 1.8271,-0.0671 1.7594,-0.0681 1.827,-0.0692 1.8271,-0.0701 1.7594,-0.071 1.8271,-0.0721 1.7594,-0.0729 1.827,-0.0739 1.8271,-0.0748 1.7594,-0.0757 1.8271,-0.0765 1.7594,-0.0774 1.827,-0.0781 1.8271,-0.079 1.7594,-0.0798 1.8271,-0.0806 1.7594,-0.0813 1.827,-0.082 1.8271,-0.0827 1.7594,-0.0835 1.8271,-0.0841 1.7594,-0.0847 1.827,-0.0853 1.8271,-0.086 1.7594,-0.086 1.8271,0.2194 1.7594,0.3002 1.827,0.3025 1.8271,0.305 1.7594,0.3073 1.8271,0.3094 1.7594,0.3117 1.827,0.3139 1.8271,0.3161 1.7594,0.3181 1.8271,0.3202 1.7594,0.3221 1.827,0.3242 1.8271,0.3261 1.7594,0.3279 1.8271,0.3299 1.7594,0.2035 1.827,-0.0353 1.8271,-0.0355 1.7594,-0.0356 1.8271,-0.0357 1.7594,-0.0357 1.827,-0.0359 1.8271,-0.0358 1.7594,-0.036 1.8271,-0.036 1.7594,-0.0361 1.827,-0.0361 1.8271,-0.0361 1.7594,-0.0361 1.8271,-0.0362 1.7594,-0.0361 1.827,-0.0362 1.8271,-0.036 1.7594,-0.0361 1.8271,-0.0361 1.7594,-0.0359 1.827,-0.0359 1.8271,-0.0359 1.7594,-0.0358 1.8271,-0.0357 1.7594,-0.0356 1.827,-0.0355 1.8271,-0.0354 1.7594,-0.0352 1.8271,-0.0352 1.7594,-0.035 1.827,-0.0348 1.8271,-0.0347 1.7594,-0.0345 1.8271,-0.0344 1.7594,-0.034 1.827,-0.034 1.8271,-0.0338 1.7594,-0.0335 1.8271,-0.0333 1.7594,-0.0331 1.827,-0.0328 1.8271,-0.0326 1.7594,-0.0323 1.8271,-0.0321 1.7594,-0.0317 1.827,-0.0315 1.8271,-0.0312 1.7594,-0.0309 1.8271,-0.0305 1.827,-0.0303 1.7594,-0.0298 1.8271,-0.0297 1.7594,-0.0291 1.8271,-0.0289 1.827,-0.0285 1.7594,0.118 1.8271,0.3865 1.7594,0.3827 1.8271,0.3786 1.827,0.3746 1.7594,0.3704 1.8271,0.3661 1.7594,0.3618 1.8271,0.3572 1.827,0.3526 1.7594,0.3479 1.8271,0.343 1.7594,0.338 1.8271,0.3329 1.827,0.3276 1.7594,0.3222 1.8271,0.3166 1.7594,0.3109 1.8271,0.305 1.827,0.299 1.7594,0.2929 1.8271,0.2865 1.7594,0.2799 1.8271,0.2733 1.827,0.2664 1.7594,0.2594 1.8271,0.2522 1.7594,0.2447 1.8271,0.2371 1.827,0.2294 1.7594,0.2214 1.8271,0.2132 1.7594,0.1882 1.8271,-0.1291 1.827,-0.1244 1.7594,-0.1194 1.8271,-0.1141 1.7594,-0.1087 1.8271,-0.103 1.827,-0.0971 1.7594,-0.091 1.8271,-0.0846 1.7594,-0.078 1.8271,-0.0713 1.827,-0.0644 1.7594,-0.0572 1.8271,-0.0499 1.7594,-0.0425 1.8271,-0.0349 1.827,-0.0273 1.7594,-0.0196 1.8271,-0.0117 1.7594,-0.004"
   id="path158" />
   <path
   d="m 150,380.1604 1.8271,-3e-4 1.7594,-8e-4 1.827,-10e-4 1.7594,-0.002 1.8271,-0.002 1.8271,-0.003 1.7594,-0.003 1.827,-0.004 1.7594,-0.004 1.8271,-0.005 1.8271,-0.005 1.7594,-0.006 1.827,-0.006 1.7594,-0.007 1.8271,-0.007 1.8271,-0.008 1.7594,-0.008 1.827,-0.009 1.7594,-0.009 1.8271,-0.01 1.8271,-0.0104 1.7594,-0.0109 1.827,-0.0115 1.7594,-0.0119 1.8271,-0.0125 1.8271,-0.0129 1.7594,-0.0134 1.827,-0.0138 1.7594,-0.0143 1.8271,-0.0149 1.8271,-0.0153 1.7594,-0.0158 1.827,-0.0163 1.7594,-0.0167 1.8271,-0.0171 1.8271,-0.0177 1.7594,-0.018 1.827,-0.0186 1.7594,-0.019 1.8271,-0.0194 1.8271,-0.0199 1.7594,-0.0203 1.827,-0.0208 1.7594,-0.0211 1.8271,-0.0216 1.8271,-0.0221 1.7594,-0.0224 1.827,-0.0229 1.8271,-0.0232 1.7594,-0.0237 1.8271,-0.0241 1.7594,-0.0245 1.827,-0.0248 1.8271,-0.0253 1.7594,-0.0256 1.8271,-0.026 1.7594,-0.0263 1.827,-0.0267 1.8271,-0.0271 1.7594,-0.0274 1.8271,-0.0279 1.7594,-0.0281 1.827,-0.0285 1.8271,-0.0287 1.7594,-0.0291 1.8271,-0.0295 1.7594,-0.0297 1.827,-0.0301 1.8271,-0.0303 1.7594,-0.0306 1.8271,-0.0309 1.7594,-0.0313 1.827,-0.0314 1.8271,-0.0318 1.7594,-0.032 1.8271,-0.0322 1.7594,-0.0325 1.827,-0.0328 1.8271,-0.0329 1.7594,-0.0332 1.8271,-0.0334 1.7594,-0.0336 1.827,-0.0338 1.8271,-0.034 1.7594,-0.0341 1.8271,-0.0344 1.7594,-0.0345 1.827,-0.0347 1.8271,-0.0348 1.7594,-0.035 1.8271,-0.0351 1.7594,0.0928 1.827,0.3335 1.8271,0.3351 1.7594,0.3369 1.8271,0.3385 1.7594,0.3402 1.827,0.3418 1.8271,0.3433 1.7594,0.3448 1.8271,0.3463 1.7594,0.3478 1.827,0.3492 1.8271,0.3505 1.7594,0.3519 1.8271,0.3532 1.7594,0.3545 1.827,0.3557 1.8271,0.3569 1.7594,0.3581 1.8271,0.3592 1.7594,0.3604 1.827,0.3614 1.8271,0.3624 1.7594,0.3635 1.8271,0.3644 1.7594,0.3654 1.827,0.3663 1.8271,0.3671 1.7594,0.368 1.8271,0.3689 1.7594,0.3697 1.827,0.3704 1.8271,0.3711 1.7594,0.3719 1.8271,0.3726 1.7594,0.3731 1.827,0.3738 1.8271,0.3745 1.7594,0.3749 1.8271,0.3756 1.7594,0.376 1.827,0.3765 1.8271,0.3769 1.7594,0.3774 1.8271,0.3345 1.7594,-0.1931 1.827,-0.1934 1.8271,-0.1936 1.7594,-0.1938 1.8271,-0.1939 1.827,-0.1941 1.7594,-0.194 1.8271,-0.1941 1.7594,-0.194 1.8271,-0.1938 1.827,-0.1938 1.7594,-0.1935 1.8271,-0.1933 1.7594,-0.1929 1.8271,-0.1925 1.827,-0.1921 1.7594,-0.1915 1.8271,-0.191 1.7594,-0.1903 1.8271,-0.1894 1.827,-0.1887 1.7594,-0.1877 1.8271,-0.1867 1.7594,-0.1856 1.8271,-0.1843 1.827,-0.183 1.7594,-0.1816 1.8271,-0.1801 1.7594,-0.1783 1.8271,-0.1765 1.827,-0.1745 1.7594,-0.1724 1.8271,-0.1702 1.7594,-0.1677 1.8271,-0.1652 1.827,-0.1624 1.7594,-0.1596 1.8271,-0.1564 1.7594,-0.1532 1.8271,-0.1497 1.827,-0.146 1.7594,-0.1421 1.8271,-0.138 1.7594,-0.117 1.8271,0.1964 1.827,0.1876 1.7594,0.1787 1.8271,0.1696 1.7594,0.1604 1.8271,0.151 1.827,0.1414 1.7594,0.1315 1.8271,0.1217 1.7594,0.1116 1.8271,0.1015 1.827,0.091 1.7594,0.0807 1.8271,0.0701 1.7594,0.0596 1.8271,0.0487 1.827,0.038 1.7594,0.0272 1.8271,0.0164 1.7594,0.005"
   id="path160" />
   <path
   d="m 150,409.0773 1.8271,4e-4 1.7594,0.001 1.827,0.002 1.7594,0.003 1.8271,0.004 1.8271,0.005 1.7594,0.005 1.827,0.006 1.7594,0.007 1.8271,0.008 1.8271,0.009 1.7594,0.01 1.827,0.0104 1.7594,0.0113 1.8271,0.012 1.8271,0.0129 1.7594,0.0136 1.827,0.0145 1.7594,0.0153 1.8271,0.016 1.8271,0.0169 1.7594,0.0176 1.827,0.0184 1.7594,0.0192 1.8271,0.0198 1.8271,0.0208 1.7594,-0.0367 1.827,-0.0568 1.7594,-0.0588 1.8271,-0.0607 1.8271,-0.0626 1.7594,-0.0646 1.827,-0.0665 1.7594,-0.0685 1.8271,-0.0703 1.8271,-0.0722 1.7594,-0.0742 1.827,-0.0759 1.7594,-0.0779 1.8271,-0.0797 1.8271,-0.0815 1.7594,-0.0833 1.827,-0.0852 1.7594,-0.087 1.8271,-0.0887 1.8271,-0.0905 1.7594,-0.0923 1.827,-0.094 1.8271,-0.0958 1.7594,-0.0975 1.8271,-0.0992 1.7594,-0.1009 1.827,-0.1025 1.8271,-0.1043 1.7594,-0.1059 1.8271,-0.1075 1.7594,-0.1092 1.827,-0.1107 1.8271,-0.1125 1.7594,-0.1139 1.8271,-0.1156 1.7594,-0.1171 1.827,-0.1187 1.8271,-0.1202 1.7594,-0.1217 1.8271,-0.1232 1.7594,-0.1248 1.827,-0.1262 1.8271,-0.1277 1.7594,-0.1291 1.8271,-0.1306 1.7594,-0.132 1.827,-0.1334 1.8271,-0.1349 1.7594,-0.1361 1.8271,-0.1376 1.7594,-0.139 1.827,-0.1403 1.8271,-0.1416 1.7594,-0.143 1.8271,-0.1442 1.7594,-0.1456 1.827,-0.1468 1.8271,-0.1481 1.7594,-0.1494 1.8271,-0.1506 1.7594,-0.1519 1.827,-0.153 1.8271,-0.1543 1.7594,-0.1554 1.8271,-0.1566 1.7594,-0.1579 1.827,-0.1589 1.8271,-0.1601 1.7594,-0.1612 1.8271,-0.1623 1.7594,-0.1634 1.827,-0.1645 1.8271,-0.1655 1.7594,-0.1666 1.8271,-0.1677 1.7594,-0.1686 1.827,-0.1697 1.8271,-0.1707 1.7594,-0.1716 1.8271,-0.1727 1.7594,-0.1735 1.827,-0.1745 1.8271,-0.1755 1.7594,-0.1763 1.8271,-0.1772 1.7594,-0.1781 1.827,-0.179 1.8271,-0.1797 1.7594,-0.1807 1.8271,-0.1814 1.7594,-0.1821 1.827,-0.183 1.8271,-0.1838 1.7594,-0.1844 1.8271,-0.1851 1.7594,-0.1859 1.827,-0.1865 1.8271,-0.1871 1.7594,-0.1878 1.8271,-0.1884 1.7594,-0.1889 1.827,-0.1894 1.8271,-0.19 1.7594,-0.1906 1.8271,-0.1909 1.7594,-0.1915 1.827,-0.1918 1.8271,-0.1922 1.7594,-0.1926 1.8271,-0.1496 1.7594,0.3782 1.827,0.3785 1.8271,0.3788 1.7594,0.3792 1.8271,0.3794 1.827,0.3797 1.7594,0.3799 1.8271,0.3801 1.7594,0.3802 1.8271,0.3804 1.827,0.3806 1.7594,0.3806 1.8271,0.3808 1.7594,0.3807 1.8271,0.3808 1.827,0.3809 1.7594,0.3808 1.8271,0.3807 1.7594,0.3807 1.8271,0.3806 1.827,0.3805 1.7594,0.3804 1.8271,0.3802 1.7594,0.38 1.8271,0.3799 1.827,0.3796 1.7594,0.3794 1.8271,0.379 1.7594,0.3788 1.8271,0.3784 1.827,0.3781 1.7594,0.3778 1.8271,0.3773 1.7594,0.3769 1.8271,0.3764 1.827,0.3759 1.7594,0.3754 1.8271,0.3749 1.7594,0.3742 1.8271,0.3736 1.827,0.3729 1.7594,0.3722 1.8271,0.3714 1.7594,0.3705 1.8271,0.3697 1.827,0.3686 1.7594,0.3675 1.8271,0.3663 1.7594,0.3649 1.8271,0.3634 1.827,0.3615 1.7594,0.3596 1.8271,0.357 1.7594,0.3541 1.8271,0.3504 1.827,0.3456 1.7594,0.2515 1.8271,0.005 1.7594,0.004 1.8271,0.003 1.827,0.003 1.7594,0.002 1.8271,10e-4 1.7594,4e-4"
   id="path162" />
   <path
   d="m 150,410.0811 1.8271,-10e-4 1.7594,-0.003 1.827,-0.005 1.7594,-0.007 1.8271,-0.01 1.8271,-0.0116 1.7594,-0.0138 1.827,-0.0158 1.7594,-0.0179 1.8271,-0.02 1.8271,-0.0221 1.7594,-0.0242 1.827,-0.0263 1.7594,-0.0284 1.8271,-0.0304 1.8271,-0.0325 1.7594,-0.0346 1.827,-0.0366 1.7594,-0.0387 1.8271,-0.0407 1.8271,-0.0428 1.7594,-0.0448 1.827,-0.0468 1.7594,-0.0488 1.8271,-0.0508 1.8271,-0.0529 1.7594,0.003 1.827,0.0222 1.7594,0.0229 1.8271,0.0236 1.8271,0.0244 1.7594,0.0251 1.827,0.0258 1.7594,0.0265 1.8271,0.0272 1.8271,0.0279 1.7594,0.0285 1.827,0.0292 1.7594,0.0299 1.8271,0.0305 1.8271,0.0312 1.7594,0.0318 1.827,0.0324 1.7594,0.0331 1.8271,0.0336 1.8271,0.0342 1.7594,0.0349 1.827,0.0354 1.8271,0.0359 1.7594,0.0365 1.8271,0.0371 1.7594,0.0375 1.827,0.0381 1.8271,0.0387 1.7594,0.0391 1.8271,0.0396 1.7594,0.0401 1.827,0.0406 1.8271,0.041 1.7594,0.0414 1.8271,0.0419 1.7594,0.0424 1.827,0.0427 1.8271,0.0432 1.7594,0.0435 1.8271,0.0439 1.7594,0.0443 1.827,0.0446 1.8271,0.045 1.7594,0.0454 1.8271,0.0456 1.7594,0.046 1.827,0.0463 1.8271,0.0465 1.7594,0.0468 1.8271,0.0471 1.7594,0.0474 1.827,0.0475 1.8271,0.0478 1.7594,0.048 1.8271,0.0483 1.7594,0.0484 1.827,0.0486 1.8271,0.0488 1.7594,0.0489 1.8271,0.0491 1.7594,0.0492 1.827,0.0493 1.8271,0.0495 1.7594,0.0495 1.8271,0.0497 1.7594,0.0497 1.827,0.0497 1.8271,0.0499 1.7594,0.0498 1.8271,0.0499 1.7594,0.0499 1.827,0.0499 1.8271,0.0499 1.7594,0.0499 1.8271,0.0499 1.7594,0.0498 1.827,0.0497 1.8271,0.0498 1.7594,0.0496 1.8271,0.0495 1.7594,0.0494 1.827,0.0493 1.8271,0.0492 1.7594,0.0491 1.8271,0.0489 1.7594,0.0488 1.827,0.0486 1.8271,0.0484 1.7594,0.0482 1.8271,0.048 1.7594,0.0478 1.827,0.0476 1.8271,0.0473 1.7594,0.0471 1.8271,0.0469 1.7594,0.0465 1.827,0.0464 1.8271,0.0459 1.7594,0.0458 1.8271,0.0453 1.7594,0.0451 1.827,0.0448 1.8271,0.0444 1.7594,0.044 1.8271,0.0437 1.7594,0.0433 1.827,0.043 1.8271,0.0425 1.7594,0.0421 1.8271,0.0418 1.7594,0.0413 1.827,0.0409 1.8271,0.0404 1.7594,0.04 1.8271,0.0395 1.827,0.0391 1.7594,0.0385 1.8271,0.0381 1.7594,0.0377 1.8271,0.037 1.827,0.0366 1.7594,0.036 1.8271,0.0356 1.7594,0.0349 1.8271,0.0345 1.827,0.0338 1.7594,0.0334 1.8271,0.0327 1.7594,0.0322 1.8271,0.0315 1.827,0.031 1.7594,0.0304 1.8271,0.0298 1.7594,0.0291 1.8271,0.0285 1.827,0.0279 1.7594,0.0273 1.8271,0.0265 1.7594,0.026 1.8271,0.0253 1.827,0.0247 1.7594,0.024 1.8271,0.0232 1.7594,0.0226 1.8271,0.0219 1.827,0.0213 1.7594,0.0205 1.8271,0.0199 1.7594,0.0191 1.8271,0.0184 1.827,0.0177 1.7594,0.017 1.8271,0.0162 1.7594,0.0156 1.8271,0.0147 1.827,0.0141 1.7594,0.0133 1.8271,0.0126 1.7594,0.0118 1.8271,0.0111 1.827,0.0103 1.7594,0.01 1.8271,0.009 1.7594,0.008 1.8271,0.007 1.827,0.007 1.7594,0.0936 1.8271,0.3307 1.7594,0.3187 1.8271,0.3006 1.827,0.2724 1.7594,0.2277 1.8271,0.1572 1.7594,0.0572"
   id="path164" />
   <path
   d="m 150,414.744 1.8271,10e-5 1.7594,3e-4 1.827,4e-4 1.7594,7e-4 1.8271,9e-4 1.8271,0.001 1.7594,10e-4 1.827,10e-4 1.7594,0.002 1.8271,0.002 1.8271,0.002 1.7594,0.002 1.827,0.002 1.7594,0.003 1.8271,0.003 1.8271,0.003 1.7594,0.003 1.827,0.003 1.7594,0.004 1.8271,0.004 1.8271,0.004 1.7594,0.004 1.827,0.005 1.7594,0.005 1.8271,0.005 1.8271,0.005 1.7594,0.005 1.827,0.006 1.7594,0.006 1.8271,0.006 1.8271,0.006 1.7594,0.007 1.827,0.007 1.7594,0.007 1.8271,0.007 1.8271,0.008 1.7594,0.008 1.827,0.008 1.7594,0.008 1.8271,0.009 1.8271,0.009 1.7594,0.009 1.827,0.009 1.7594,0.01 1.8271,0.01 1.8271,0.0103 1.7594,0.0106 1.827,0.0109 1.8271,0.0111 1.7594,0.0115 1.8271,0.0118 1.7594,0.0121 1.827,0.0124 1.8271,0.0127 1.7594,0.0131 1.8271,0.0133 1.7594,0.0137 1.827,0.0141 1.8271,0.0143 1.7594,0.0147 1.8271,0.0151 1.7594,0.0154 1.827,0.0157 1.8271,0.0161 1.7594,0.0165 1.8271,0.0168 1.7594,0.0171 1.827,0.0175 1.8271,0.0179 1.7594,0.0183 1.8271,0.0186 1.7594,0.019 1.827,0.0194 1.8271,0.0197 1.7594,0.0202 1.8271,0.0204 1.7594,0.0209 1.827,0.0213 1.8271,0.0216 1.7594,0.0221 1.8271,0.0224 1.7594,0.0228 1.827,0.0232 1.8271,0.0236 1.7594,0.0239 1.8271,0.0243 1.7594,0.0247 1.827,0.0252 1.8271,0.0254 1.7594,0.0259 1.8271,0.0263 1.7594,0.0266 1.827,0.027 1.8271,0.0274 1.7594,0.0277 1.8271,0.0281 1.7594,0.0285 1.827,0.0288 1.8271,0.0292 1.7594,0.0296 1.8271,0.0298 1.7594,0.0303 1.827,0.0306 1.8271,0.0309 1.7594,0.0312 1.8271,0.0316 1.7594,0.0319 1.827,0.0321 1.8271,0.0325 1.7594,0.0328 1.8271,0.0331 1.7594,0.0333 1.827,0.0336 1.8271,0.0339 1.7594,0.0341 1.8271,0.0344 1.7594,0.0346 1.827,0.0349 1.8271,0.0349 1.7594,0.0352 1.8271,0.0354 1.7594,0.0357 1.827,0.0357 1.8271,0.036 1.7594,0.0361 1.8271,0.0362 1.7594,0.0363 1.827,0.0364 1.8271,0.0365 1.7594,0.0366 1.8271,0.0367 1.7594,0.0367 1.827,0.0367 1.8271,0.0367 1.7594,0.0368 1.8271,0.0367 1.7594,0.0367 1.827,0.0367 1.8271,0.0365 1.7594,0.0365 1.8271,0.0364 1.827,0.0363 1.7594,0.0361 1.8271,0.036 1.7594,0.0358 1.8271,0.0357 1.827,0.0354 1.7594,0.0352 1.8271,0.035 1.7594,0.0347 1.8271,0.0344 1.827,0.0341 1.7594,0.0338 1.8271,0.0334 1.7594,0.0331 1.8271,0.0327 1.827,0.0324 1.7594,0.0319 1.8271,0.0314 1.7594,0.0311 1.8271,0.0305 1.827,0.03 1.7594,0.0296 1.8271,0.029 1.7594,0.0285 1.8271,0.0279 1.827,0.0273 1.7594,0.0267 1.8271,0.0261 1.7594,0.0255 1.8271,0.0248 1.827,0.0242 1.7594,0.0234 1.8271,0.0228 1.7594,0.022 1.8271,0.0213 1.827,0.0206 1.7594,0.0198 1.8271,0.019 1.7594,0.0182 1.8271,0.0175 1.827,0.0166 1.7594,0.0158 1.8271,0.0149 1.7594,0.0141 1.8271,0.0133 1.827,0.0123 1.7594,0.0115 1.8271,0.0106 1.7594,0.01 1.8271,0.009 1.827,0.008 1.7594,0.007 1.8271,0.006 1.7594,0.005 1.8271,0.004 1.827,0.003 1.7594,0.002 1.8271,10e-4 1.7594,5e-4"
   id="path166" />
   <path
   d="m 150,452.7033 1.8271,-0.001 1.7594,-0.003 1.827,-0.005 1.7594,-0.008 1.8271,-0.01 1.8271,-0.0119 1.7594,-0.0141 1.827,-0.0163 1.7594,-0.0184 1.8271,-0.0207 1.8271,-0.0228 1.7594,-0.0249 1.827,-0.027 1.7594,-0.0293 1.8271,-0.0314 1.8271,-0.0336 1.7594,-0.0357 1.827,-0.0378 1.7594,-0.04 1.8271,-0.0421 1.8271,-0.0444 1.7594,-0.0464 1.827,-0.0485 1.7594,-0.0507 1.8271,-0.0528 1.8271,-0.0549 1.7594,-0.057 1.827,-0.0592 1.7594,-0.0613 1.8271,-0.0633 1.8271,-0.0654 1.7594,-0.0676 1.827,-0.0697 1.7594,-0.0717 1.8271,-0.0738 1.8271,-0.0759 1.7594,-0.0779 1.827,-0.08 1.7594,-0.0822 1.8271,-0.0841 1.8271,-0.0861 1.7594,-0.0882 1.827,-0.0903 1.7594,-0.0923 1.8271,-0.0942 1.8271,-0.0963 1.7594,-0.0983 1.827,-0.1003 1.8271,-0.1023 1.7594,-0.1043 1.8271,-0.1062 1.7594,-0.1083 1.827,-0.1102 1.8271,-0.1121 1.7594,-0.1142 1.8271,-0.116 1.7594,-0.118 1.827,-0.1199 1.8271,-0.1218 1.7594,-0.1237 1.8271,-0.1256 1.7594,-0.1275 1.827,-0.1294 1.8271,-0.1313 1.7594,-0.1331 1.8271,-0.135 1.7594,-0.1368 1.827,-0.1387 1.8271,-0.1404 1.7594,-0.1423 1.8271,-0.1441 1.7594,-0.1459 1.827,-0.1477 1.8271,-0.1494 1.7594,-0.1513 1.8271,-0.1529 1.7594,-0.1547 1.827,-0.1565 1.8271,-0.1581 1.7594,-0.1599 1.8271,-0.1615 1.7594,-0.1632 1.827,-0.1649 1.8271,-0.1666 1.7594,-0.1682 1.8271,-0.1699 1.7594,-0.1714 1.827,-0.1731 1.8271,-0.1746 1.7594,-0.1762 1.8271,-0.1779 1.7594,-0.1793 1.827,-0.1809 1.8271,-0.1823 1.7594,-0.1839 1.8271,-0.1854 1.7594,-0.1868 1.827,-0.1882 1.8271,-0.1898 1.7594,-0.1911 1.8271,-0.1925 1.7594,-0.1939 1.827,-0.1953 1.8271,-0.1966 1.7594,-0.1979 1.8271,-0.1992 1.7594,-0.2005 1.827,-0.2017 1.8271,-0.203 L 348,440.5 l 1.8271,-0.2054 1.7594,-0.2065 1.827,-0.2077 1.8271,-0.2087 1.7594,-0.2099 1.8271,-0.2109 1.7594,-0.2119 1.827,-0.2129 1.8271,-0.2139 1.7594,-0.2148 1.8271,-0.2157 1.7594,-0.2165 1.827,-0.2174 1.8271,-0.2182 1.7594,-0.219 1.8271,-0.2197 1.7594,-0.2203 1.827,-0.2209 1.8271,-0.2216 1.7594,-0.2222 1.8271,-0.2226 1.7594,-0.2231 1.827,-0.2235 1.8271,-0.2239 1.7594,-0.2242 1.8271,-0.2245 1.7594,-0.2246 1.827,-0.2248 1.8271,-0.2248 1.7594,-0.2249 1.8271,-0.2248 1.827,-0.2248 1.7594,-0.2245 1.8271,-0.2242 1.7594,-0.224 1.8271,-0.2235 1.827,-0.2231 1.7594,-0.2224 1.8271,-0.2218 1.7594,-0.2211 1.8271,-0.2202 1.827,-0.2193 1.7594,-0.2182 1.8271,-0.2171 1.7594,-0.2158 1.8271,-0.2145 1.827,-0.2131 1.7594,-0.2114 1.8271,-0.2097 1.7594,-0.2078 1.8271,-0.2059 1.827,-0.2038 1.7594,-0.2016 1.8271,-0.1991 1.7594,-0.1967 1.8271,-0.1939 1.827,-0.1911 1.7594,-0.1881 1.8271,-0.185 1.7594,-0.1816 1.8271,-0.1781 1.827,-0.1745 1.7594,-0.1707 1.8271,-0.1666 1.7594,-0.1625 1.8271,-0.1583 1.827,-0.159 1.7594,-0.3157 1.8271,-0.3374 1.7594,-0.3382 1.8271,-0.3389 1.827,-0.3395 1.7594,-0.3399 1.8271,-0.3403 1.7594,-0.3405 1.8271,-0.3404 1.827,-0.3403 1.7594,-0.3398 1.8271,-0.3389 1.7594,-0.3374 1.8271,-0.3353 1.827,-0.3323 1.7594,-0.3275 1.8271,-0.3205 1.7594,-0.31 1.8271,-0.2934 1.827,-0.2669 1.7594,-0.2237 1.8271,-0.1548 L 510,419.459"
   id="path168" />
   <path
   d="m 150,460.3463 1.8271,-10e-4 1.7594,-0.004 1.827,-0.006 1.7594,-0.009 1.8271,-0.0111 1.8271,-0.0135 1.7594,-0.016 1.827,-0.0185 1.7594,-0.0209 1.8271,-0.0233 1.8271,-0.0258 1.7594,-0.0283 1.827,-0.0307 1.7594,-0.0332 1.8271,-0.0356 1.8271,-0.038 1.7594,-0.0405 1.827,-0.043 1.7594,-0.0454 1.8271,-0.0478 1.8271,-0.0502 1.7594,-0.0527 1.827,-0.0551 1.7594,-0.0575 1.8271,-0.06 1.8271,-0.0623 1.7594,-0.0648 1.827,-0.0672 1.7594,-0.0696 1.8271,-0.072 1.8271,-0.0744 1.7594,-0.0768 1.827,-0.0791 1.7594,-0.0816 1.8271,-0.084 1.8271,-0.0863 1.7594,-0.0887 1.827,-0.091 1.7594,-0.0934 1.8271,-0.0959 1.8271,-0.0981 1.7594,-0.1005 1.827,-0.1028 1.7594,-0.1051 1.8271,-0.1075 1.8271,-0.1098 1.7594,-0.1121 1.827,-0.1144 1.8271,-0.1168 1.7594,-0.119 1.8271,-0.1214 1.7594,-0.1235 1.827,-0.1259 1.8271,-0.1282 1.7594,-0.1304 1.8271,-0.1328 1.7594,-0.1349 1.827,-0.1372 1.8271,-0.1394 1.7594,-0.1417 1.8271,-0.1439 1.7594,-0.1461 1.827,-0.1483 1.8271,-0.1505 1.7594,-0.1527 1.8271,-0.155 1.7594,-0.157 1.827,-0.1593 1.8271,-0.1614 1.7594,-0.1635 1.8271,-0.1658 1.7594,-0.1678 1.827,-0.17 1.8271,-0.1721 1.7594,-0.1743 1.8271,-0.1763 1.7594,-0.1784 1.827,-0.1806 1.8271,-0.1825 1.7594,-0.1847 1.8271,-0.1867 1.7594,-0.1888 1.827,-0.1909 1.8271,-0.1928 1.7594,-0.195 1.8271,-0.1969 1.7594,-0.1989 1.827,-0.2009 1.8271,-0.203 1.7594,-0.2049 1.8271,-0.2068 1.7594,-0.2089 1.827,-0.2107 1.8271,-0.2128 1.7594,-0.2146 1.8271,-0.2167 1.7594,-0.2185 1.827,-0.2204 1.8271,-0.2223 1.7594,-0.2242 1.8271,-0.226 1.7594,-0.228 1.827,-0.2298 1.8271,-0.2317 1.7594,-0.2334 1.8271,-0.2353 1.7594,-0.2372 1.827,-0.2389 1.8271,-0.2408 1.7594,-0.2425 1.8271,-0.2443 1.7594,-0.2461 1.827,-0.2478 1.8271,-0.2496 1.7594,-0.2513 1.8271,-0.253 1.7594,-0.2548 1.827,-0.2565 1.8271,-0.2582 1.7594,-0.2598 1.8271,-0.2615 1.7594,-0.2632 1.827,-0.2648 1.8271,-0.2665 1.7594,-0.2681 1.8271,-0.2698 1.7594,-0.2713 1.827,-0.273 1.8271,-0.2745 1.7594,-0.2761 1.8271,-0.2778 1.7594,-0.2792 1.827,-0.2808 1.8271,-0.2823 1.7594,-0.2839 1.8271,-0.2854 1.7594,-0.2868 1.827,-0.2884 1.8271,-0.2899 1.7594,-0.2912 1.8271,-0.2928 1.827,-0.2943 1.7594,-0.2956 1.8271,-0.2971 1.7594,-0.2985 1.8271,-0.2999 1.827,-0.3013 1.7594,-0.3027 1.8271,-0.304 1.7594,-0.3054 1.8271,-0.3068 1.827,-0.308 1.7594,-0.3094 1.8271,-0.3107 1.7594,-0.312 1.8271,-0.3132 1.827,-0.3145 1.7594,-0.3158 1.8271,-0.317 1.7594,-0.3182 1.8271,-0.3194 1.827,-0.3207 1.7594,-0.3218 1.8271,-0.323 1.7594,-0.3241 1.8271,-0.3252 1.827,-0.3263 1.7594,-0.3275 1.8271,-0.3285 1.7594,-0.3295 1.8271,-0.3306 1.827,-0.3316 1.7594,-0.3325 1.8271,-0.3335 1.7594,-0.3343 1.8271,-0.3349 1.827,-0.3307 1.7594,-0.1698 1.8271,-0.1442 1.7594,-0.1387 1.8271,-0.1334 1.827,-0.1278 1.7594,-0.1221 1.8271,-0.1163 1.7594,-0.1102 1.8271,-0.1041 1.827,-0.0976 1.7594,-0.0912 1.8271,-0.0844 1.7594,-0.0776 1.8271,-0.0707 1.827,-0.0636 1.7594,-0.0563 1.8271,-0.0491 1.7594,-0.0417 1.8271,-0.0342 1.827,-0.0267 1.7594,-0.0191 1.8271,-0.0114 1.7594,-0.004"
   id="path170" />
   <path
   d="m 150,466.6094 1.8271,9e-4 1.7594,0.003 1.827,0.005 1.7594,0.007 1.8271,0.009 1.8271,0.0108 1.7594,0.0128 1.827,0.0147 1.7594,0.0166 1.8271,0.0186 1.8271,0.0205 1.7594,0.0224 1.827,0.0244 1.7594,0.0263 1.8271,0.0281 1.8271,0.0301 1.7594,0.0319 1.827,0.0338 1.7594,0.0357 1.8271,0.0375 1.8271,0.0394 1.7594,0.0411 1.827,0.043 1.7594,0.0448 1.8271,0.0465 1.8271,0.0483 1.7594,0.0501 1.827,0.0518 1.7594,0.0535 1.8271,0.0552 1.8271,0.0569 1.7594,0.0585 1.827,0.0602 1.7594,0.0618 1.8271,0.0634 1.8271,0.065 1.7594,0.0666 1.827,0.0681 1.7594,0.0696 1.8271,0.0711 1.8271,0.0726 1.7594,0.0741 1.827,0.0755 1.7594,0.0769 1.8271,0.0783 1.8271,0.0796 1.7594,0.0809 1.827,0.0824 1.8271,0.0835 1.7594,0.0849 1.8271,0.0861 1.7594,0.0872 1.827,0.0886 1.8271,0.0896 1.7594,0.0907 1.8271,0.092 1.7594,0.093 1.827,0.094 1.8271,0.0951 1.7594,0.096 1.8271,0.0971 1.7594,0.0979 1.827,0.0989 1.8271,0.0998 1.7594,0.1007 1.8271,0.1015 1.7594,0.1024 1.827,0.103 1.8271,0.1039 1.7594,0.1046 1.8271,0.1053 1.7594,0.106 1.827,0.1066 1.8271,0.1072 1.7594,0.1078 1.8271,0.1084 1.7594,0.1088 1.827,0.1094 1.8271,0.1099 1.7594,0.1103 1.8271,0.1108 1.7594,-0.0923 1.827,-0.3515 1.8271,-0.3518 1.7594,-0.352 1.8271,-0.3522 1.7594,-0.3522 1.827,-0.3522 1.8271,-0.3522 1.7594,-0.3521 1.8271,-0.3518 1.7594,-0.3517 1.827,-0.3514 1.8271,-0.3509 1.7594,-0.3505 1.8271,-0.35 1.7594,-0.3495 1.827,-0.3488 1.8271,-0.3482 1.7594,-0.3474 1.8271,-0.3466 1.7594,-0.3456 1.827,-0.3448 1.8271,-0.3437 1.7594,-0.3427 1.8271,-0.3416 1.7594,-0.3403 1.827,-0.3391 1.8271,-0.3377 1.7594,-0.3365 1.8271,-0.3349 1.7594,-0.3335 1.827,-0.3319 1.8271,-0.3303 1.7594,-0.3286 1.8271,-0.3268 1.7594,-0.3251 1.827,-0.3231 1.8271,-0.3213 1.7594,-0.3193 1.8271,-0.3172 1.7594,-0.3152 1.827,-0.3129 1.8271,-0.3108 1.7594,-0.3084 1.8271,-0.3061 1.7594,-0.3037 1.827,-0.3013 1.8271,-0.2987 1.7594,-0.2962 1.8271,-0.2935 1.7594,-0.2908 1.827,-0.2881 1.8271,-0.2853 1.7594,-0.2824 1.8271,-0.2795 1.7594,-0.2765 1.827,-0.2735 1.8271,-0.2704 1.7594,-0.2673 1.8271,-0.2641 1.827,-0.2607 1.7594,-0.2576 1.8271,-0.2541 1.7594,-0.2507 1.8271,-0.2473 1.827,-0.2438 1.7594,-0.2402 1.8271,-0.2366 1.7594,-0.2329 1.8271,-0.2292 1.827,-0.2254 1.7594,-0.2216 1.8271,-0.2177 1.7594,-0.2139 1.8271,-0.2098 1.827,-0.2059 1.7594,-0.2018 1.8271,-0.1977 1.7594,-0.1936 1.8271,-0.1894 1.827,-0.1852 1.7594,-0.1809 1.8271,-0.1766 1.7594,-0.1723 1.8271,-0.1679 1.827,-0.1634 1.7594,-0.159 1.8271,-0.1545 1.7594,-0.1499 1.8271,-0.1454 1.827,-0.1408 1.7594,-0.1361 1.8271,-0.1315 1.7594,-0.1268 1.8271,-0.1221 1.827,-0.1173 1.7594,-0.1125 1.8271,-0.1077 1.7594,-0.1029 1.8271,-0.098 1.827,-0.0931 1.7594,-0.0882 1.8271,-0.0833 1.7594,-0.0784 1.8271,-0.0734 1.827,-0.0684 1.7594,-0.0633 1.8271,-0.0584 1.7594,-0.0534 1.8271,-0.0483 1.827,-0.0433 1.7594,-0.0381 1.8271,-0.0332 1.7594,-0.028 1.8271,-0.0229 1.827,-0.0179 1.7594,-0.0128 1.8271,-0.008 1.7594,-0.003"
   id="path172" />
   <path
   d="m 150,475.3568 h 1.8271 1.7594 l 1.827,10e-5 h 1.7594 1.8271 1.8271 1.7594 l 1.827,1e-4 H 166.1729 168 l 1.8271,10e-5 1.7594,10e-5 h 1.827 l 1.7594,1e-4 1.8271,10e-5 1.8271,1e-4 1.7594,10e-5 1.827,1e-4 1.7594,10e-5 1.8271,10e-5 1.8271,2e-4 1.7594,1e-4 1.827,3e-4 1.7594,1e-4 1.8271,2e-4 1.8271,3e-4 1.7594,2e-4 1.827,3e-4 1.7594,3e-4 1.8271,2e-4 1.8271,4e-4 1.7594,3e-4 1.827,4e-4 1.7594,4e-4 1.8271,4e-4 1.8271,5e-4 1.7594,5e-4 1.827,5e-4 1.7594,6e-4 1.8271,5e-4 1.8271,7e-4 1.7594,6e-4 1.827,7e-4 1.7594,7e-4 1.8271,8e-4 1.8271,8e-4 1.7594,9e-4 1.827,9e-4 1.8271,9e-4 1.7594,10e-4 1.8271,0.001 1.7594,10e-4 1.827,0.001 1.8271,10e-4 1.7594,10e-4 1.8271,0.001 1.7594,10e-4 1.827,0.001 1.8271,10e-4 1.7594,0.002 1.8271,0.002 1.7594,0.002 1.827,0.002 1.8271,0.002 1.7594,0.002 1.8271,0.002 1.7594,0.002 1.827,0.002 1.8271,0.002 1.7594,0.002 1.8271,0.002 1.7594,-10e-5 1.827,-0.3448 1.8271,-0.3459 1.7594,-0.3467 1.8271,-0.3476 1.7594,-0.3484 1.827,-0.349 1.8271,-0.3497 1.7594,-0.3503 1.8271,-0.3507 1.7594,-0.1477 1.827,0.1115 1.8271,0.1118 1.7594,0.1122 1.8271,0.1123 1.7594,0.1127 1.827,0.1129 1.8271,0.113 1.7594,0.1132 1.8271,0.1134 1.7594,0.1134 1.827,0.1136 1.8271,0.1136 1.7594,0.1136 1.8271,0.1136 1.7594,0.1136 1.827,0.1135 1.8271,0.1135 1.7594,0.1133 1.8271,0.1132 1.7594,0.1131 1.827,0.1128 1.8271,0.1126 1.7594,0.1124 1.8271,0.1121 1.7594,0.1118 1.827,0.1115 1.8271,0.1111 1.7594,0.1106 1.8271,0.11 1.7594,0.1085 1.827,0.0625 1.8271,0.007 1.7594,0.006 1.8271,0.005 1.7594,0.005 1.827,0.005 1.8271,0.005 1.7594,0.005 1.8271,0.006 1.7594,0.005 1.827,0.005 1.8271,0.006 1.7594,0.006 1.8271,0.006 1.7594,0.006 1.827,0.006 1.8271,0.006 1.7594,0.006 1.8271,0.006 1.7594,0.006 1.827,0.006 1.8271,0.006 1.7594,0.006 1.8271,0.006 1.7594,0.006 1.827,0.006 1.8271,0.006 1.7594,0.006 1.8271,0.006 1.827,0.006 1.7594,0.006 1.8271,0.005 1.7594,0.006 1.8271,0.005 1.827,0.005 1.7594,0.006 1.8271,0.005 1.7594,0.005 1.8271,0.005 1.827,0.005 1.7594,0.005 1.8271,0.005 1.7594,0.005 1.8271,0.005 1.827,0.005 1.7594,0.005 1.8271,0.005 1.7594,0.005 1.8271,0.005 1.827,0.005 1.7594,0.005 1.8271,0.004 1.7594,0.004 1.8271,0.004 1.827,0.004 1.7594,0.004 1.8271,0.004 1.7594,0.004 1.8271,0.004 1.827,0.004 1.7594,0.003 1.8271,0.004 1.7594,0.003 1.8271,0.003 1.827,0.003 1.7594,0.003 1.8271,0.003 1.7594,0.003 1.8271,0.003 1.827,0.002 1.7594,0.002 1.8271,0.002 1.7594,0.002 1.8271,0.002 1.827,0.002 1.7594,0.002 1.8271,0.002 1.7594,0.001 1.8271,10e-4 1.827,10e-4 1.7594,0.001 1.8271,-9e-4 1.7594,-0.0164 1.8271,-0.014 1.827,-0.0109 1.7594,-0.008 1.8271,-0.005 1.7594,-0.002"
   id="path174" />
   <path
   d="m 150,491.3866 1.8271,-0.004 1.7594,-0.0127 1.827,-0.0211 1.7594,-0.0295 1.8271,-0.0378 1.8271,-0.0462 1.7594,-0.0545 1.827,-0.0626 1.7594,-0.0709 1.8271,-0.0788 1.8271,-0.0869 1.7594,-0.0948 1.827,-0.1025 1.7594,-0.1103 1.8271,-0.1178 1.8271,-0.1253 1.7594,-0.1327 1.827,-0.1398 1.7594,-0.147 1.8271,-0.1538 1.8271,-0.1608 1.7594,-0.1674 1.827,-0.174 1.7594,-0.1804 1.8271,-0.1867 1.8271,-0.1928 1.7594,-0.1988 1.827,-0.2046 1.7594,-0.2103 1.8271,-0.2159 1.8271,-0.2214 1.7594,-0.2266 1.827,-0.2317 1.7594,-0.2368 1.8271,-0.2417 1.8271,-0.2463 1.7594,-0.251 1.827,-0.2555 1.7594,-0.2598 1.8271,-0.2641 1.8271,-0.2681 1.7594,-0.2722 1.827,-0.2759 1.7594,-0.2797 1.8271,-0.2834 1.8271,-0.2868 1.7594,-0.2903 1.827,-0.2934 1.8271,-0.2968 1.7594,-0.2998 1.8271,-0.3027 1.7594,-0.3056 1.827,-0.3083 1.8271,-0.311 1.7594,-0.3136 1.8271,-0.316 1.7594,-0.3185 1.827,-0.3207 1.8271,-0.323 1.7594,-0.3249 1.8271,-0.3271 1.7594,-0.329 1.827,-0.3308 1.8271,-0.3326 1.7594,-0.3342 1.8271,-0.3359 1.7594,-0.3373 1.827,-0.3389 1.8271,-0.3401 1.7594,-0.3415 1.8271,-0.3427 1.7594,-0.3414 1.827,0.002 1.8271,0.002 1.7594,0.002 1.8271,0.003 1.7594,0.003 1.827,0.003 1.8271,0.003 1.7594,0.003 1.8271,0.003 1.7594,0.003 1.827,0.003 1.8271,0.003 1.7594,0.003 1.8271,0.003 1.7594,0.003 1.827,0.003 1.8271,0.004 1.7594,0.004 1.8271,0.004 1.7594,0.004 1.827,0.004 1.8271,0.004 1.7594,0.004 1.8271,0.004 1.7594,0.004 1.827,0.004 1.8271,0.004 1.7594,0.004 1.8271,0.004 1.7594,0.005 1.827,0.005 1.8271,0.005 1.7594,0.005 1.8271,0.005 1.7594,0.005 1.827,0.005 1.8271,0.005 1.7594,0.005 1.8271,0.005 1.7594,0.007 1.827,0.0522 1.8271,0.1071 1.7594,0.1082 1.8271,0.1079 1.7594,0.1073 1.827,0.1069 1.8271,0.1063 1.7594,0.1056 1.8271,0.1051 1.7594,0.1043 1.827,0.1037 1.8271,0.1029 1.7594,0.1023 1.8271,0.1014 1.7594,0.1007 1.827,0.0999 1.8271,0.0991 1.7594,0.0982 1.8271,0.0973 1.7594,0.0965 1.827,0.0955 1.8271,0.0946 1.7594,0.0937 1.8271,0.0926 1.7594,0.0918 1.827,0.0906 1.8271,0.0896 1.7594,0.0887 1.8271,0.0875 1.827,0.0864 1.7594,0.0853 1.8271,0.0842 1.7594,0.083 1.8271,0.0819 1.827,0.0807 1.7594,0.0794 1.8271,0.0783 1.7594,0.0768 1.8271,0.0737 1.827,-0.0885 1.7594,-0.1212 1.8271,-0.1198 1.7594,-0.1183 1.8271,-0.1166 1.827,-0.115 1.7594,-0.1131 1.8271,-0.1113 1.7594,-0.1094 1.8271,-0.1075 1.827,-0.1055 1.7594,-0.1035 1.8271,-0.1014 1.7594,-0.0992 1.8271,-0.097 1.827,-0.0948 1.7594,-0.0926 1.8271,-0.0902 1.7594,-0.0878 1.8271,-0.0854 1.827,-0.083 1.7594,-0.0804 1.8271,-0.0779 1.7594,-0.0753 1.8271,-0.0727 1.827,-0.07 1.7594,-0.0673 1.8271,-0.0646 1.7594,-0.0618 1.8271,-0.059 1.827,-0.0562 1.7594,-0.0533 1.8271,-0.0504 1.7594,-0.0476 1.8271,-0.0445 1.827,-0.0416 1.7594,-0.0386 1.8271,-0.0356 1.7594,-0.0326 1.8271,-0.0295 1.827,-0.0264 1.7594,-0.0234 1.8271,-0.0184 H 501 l 1.8271,5e-4 1.827,5e-4 1.7594,4e-4 1.8271,2e-4 H 510"
   id="path176" />
   <path
   d="m 150,492.906 1.8271,-6e-4 1.7594,-0.002 1.827,-0.003 1.7594,-0.004 1.8271,-0.006 1.8271,-0.007 1.7594,-0.008 1.827,-0.01 1.7594,-0.0108 1.8271,-0.012 1.8271,-0.0134 1.7594,-0.0145 1.827,-0.0159 1.7594,-0.0172 1.8271,-0.0184 1.8271,-0.0197 1.7594,-0.021 1.827,-0.0223 1.7594,-0.0236 1.8271,-0.0249 1.8271,-0.0262 1.7594,-0.0275 1.827,-0.0288 1.7594,-0.0302 1.8271,-0.0314 1.8271,-0.0327 1.7594,-0.0341 1.827,-0.0354 1.7594,-0.0367 1.8271,-0.038 1.8271,-0.0394 1.7594,-0.0408 1.827,-0.042 1.7594,-0.0435 1.8271,-0.0447 1.8271,-0.0462 1.7594,-0.0475 1.827,-0.0488 1.7594,-0.0502 1.8271,-0.0516 1.8271,-0.053 1.7594,-0.0544 1.827,-0.0557 1.7594,-0.0572 1.8271,-0.0585 1.8271,-0.0599 1.7594,-0.0613 1.827,-0.0627 1.8271,-0.0642 1.7594,-0.0655 1.8271,-0.0669 1.7594,-0.0684 1.827,-0.0697 1.8271,-0.0712 1.7594,-0.0726 1.8271,-0.074 1.7594,-0.0755 1.827,-0.0768 1.8271,-0.0783 1.7594,-0.0797 1.8271,-0.0811 1.7594,-0.0825 1.827,-0.084 1.8271,-0.0853 1.7594,-0.0868 1.8271,-0.0882 1.7594,-0.0896 1.827,-0.0909 1.8271,-0.0924 1.7594,-0.0939 1.8271,-0.0951 1.7594,-0.0966 1.827,-0.098 1.8271,-0.0993 1.7594,-0.1007 1.8271,-0.102 1.7594,-0.1034 1.827,-0.1048 1.8271,-0.106 1.7594,-0.1074 1.8271,-0.1087 1.7594,-0.11 1.827,-0.1113 1.8271,-0.1125 1.7594,-0.1138 1.8271,-0.115 1.7594,-0.1163 1.827,-0.1175 1.8271,-0.1186 1.7594,-0.1199 1.8271,-0.1209 1.7594,-0.1222 1.827,-0.1232 1.8271,-0.1243 1.7594,-0.1255 1.8271,-0.1264 1.7594,-0.1275 1.827,-0.1285 1.8271,-0.1294 1.7594,-0.1304 1.8271,-0.1313 1.7594,-0.1322 1.827,-0.1331 1.8271,-0.1339 1.7594,-0.1347 1.8271,-0.1354 1.7594,-0.1362 1.827,-0.1369 1.8271,-0.1376 1.7594,-0.1382 1.8271,-0.1388 1.7594,-0.1393 1.827,-0.1399 1.8271,-0.1403 1.7594,-0.1408 1.8271,-0.1412 1.7594,-0.1416 1.827,-0.1418 1.8271,-0.1422 1.7594,-0.1424 1.8271,-0.1426 1.7594,-0.1427 1.827,-0.1427 1.8271,-0.1428 1.7594,-0.1429 1.8271,-0.1428 1.7594,-0.1426 1.827,-0.1426 1.8271,-0.1423 1.7594,-0.1421 1.8271,-0.1418 1.7594,-0.1415 1.827,-0.141 1.8271,-0.1406 1.7594,-0.14 1.8271,-0.1395 1.7594,-0.139 1.827,-0.1382 1.8271,-0.1375 1.7594,-0.1367 1.8271,-0.1359 1.827,-0.1349 1.7594,-0.1341 1.8271,-0.133 1.7594,-0.132 1.8271,-0.1308 1.827,-0.1297 1.7594,-0.1284 1.8271,-0.1272 1.7594,-0.1256 1.8271,-0.1223 1.827,0.04 1.7594,0.073 1.8271,0.0718 1.7594,0.0706 1.8271,0.0693 1.827,0.068 1.7594,0.0666 1.8271,0.0653 1.7594,0.0638 1.8271,0.0625 1.827,0.0611 1.7594,0.0596 1.8271,0.0582 1.7594,0.0567 1.8271,0.0553 1.827,0.0538 1.7594,0.0524 1.8271,0.0508 1.7594,0.0493 1.8271,0.0479 1.827,0.0463 1.7594,0.0447 1.8271,0.0432 1.7594,0.0417 1.8271,0.0401 1.827,0.0384 1.7594,0.037 1.8271,0.0353 1.7594,0.0338 1.8271,0.0321 1.827,0.0306 1.7594,0.0289 1.8271,0.0274 1.7594,0.0256 1.8271,0.0241 1.827,0.0224 1.7594,0.0208 1.8271,0.0191 1.7594,0.0175 1.8271,0.0158 1.827,0.0142 1.7594,0.0125 1.8271,0.0109 1.7594,0.009 1.8271,0.007 1.827,0.006 1.7594,0.004 1.8271,0.002 1.7594,9e-4"
   id="path178" />
   <path
   d="m 150,506.3003 h 1.8271 l 1.7594,2e-4 1.827,2e-4 1.7594,4e-4 1.8271,5e-4 1.8271,5e-4 1.7594,7e-4 1.827,8e-4 1.7594,8e-4 1.8271,0.001 1.8271,10e-4 1.7594,10e-4 1.827,0.001 1.7594,10e-4 1.8271,0.002 1.8271,0.002 1.7594,0.002 1.827,0.002 1.7594,0.002 1.8271,0.002 1.8271,0.002 1.7594,0.002 1.827,0.002 1.7594,0.002 1.8271,0.002 1.8271,0.002 1.7594,0.003 1.827,0.003 1.7594,0.003 1.8271,0.003 1.8271,0.003 1.7594,0.003 1.827,0.003 1.7594,0.003 1.8271,0.003 1.8271,0.003 1.7594,0.003 1.827,0.003 1.7594,0.004 1.8271,0.004 1.8271,0.004 1.7594,0.004 1.827,0.004 1.7594,0.004 1.8271,0.004 1.8271,0.004 1.7594,0.004 1.827,0.004 1.8271,0.004 1.7594,0.004 1.8271,0.004 1.7594,0.004 1.827,0.004 1.8271,0.005 1.7594,0.005 1.8271,0.005 1.7594,0.005 1.827,0.005 1.8271,0.005 1.7594,0.005 1.8271,0.005 1.7594,0.005 1.827,0.005 1.8271,0.005 1.7594,0.005 1.8271,0.005 1.7594,0.005 1.827,0.005 1.8271,0.005 1.7594,0.005 1.8271,0.005 1.7594,0.005 1.827,0.005 1.8271,0.005 1.7594,0.005 1.8271,0.005 1.7594,0.005 1.827,0.005 1.8271,0.005 1.7594,0.005 1.8271,0.005 1.7594,0.005 1.827,0.005 1.8271,0.005 1.7594,0.005 1.8271,0.005 1.7594,0.005 1.827,0.005 1.8271,0.005 1.7594,0.005 1.8271,0.005 1.7594,0.005 1.827,0.005 1.8271,0.005 1.7594,0.005 1.8271,0.005 1.7594,0.005 1.827,0.005 1.8271,0.005 1.7594,0.005 1.8271,0.005 1.7594,0.005 1.827,0.005 1.8271,0.005 1.7594,0.005 1.8271,0.005 1.7594,0.005 1.827,0.005 1.8271,0.005 1.7594,0.005 1.8271,0.005 1.7594,0.005 1.827,0.005 1.8271,-0.0911 1.7594,-0.1389 1.8271,-0.138 1.7594,-0.137 1.827,-0.1359 1.8271,-0.1349 1.7594,-0.1338 1.8271,-0.1327 1.7594,-0.1315 1.827,-0.1305 1.8271,-0.1292 1.7594,-0.1281 1.8271,-0.1269 1.7594,-0.1257 1.827,-0.1245 1.8271,-0.1232 1.7594,-0.122 1.8271,-0.1207 1.7594,-0.1194 1.827,-0.118 1.8271,-0.1169 1.7594,-0.1154 1.8271,-0.114 1.7594,-0.1127 1.827,-0.1113 1.8271,-0.1099 1.7594,-0.1085 1.8271,-0.1071 1.827,-0.1055 1.7594,-0.1041 1.8271,-0.1026 1.7594,-0.1012 1.8271,-0.0996 1.827,-0.098 1.7594,-0.0965 1.8271,-0.095 1.7594,-0.0934 1.8271,-0.0918 1.827,-0.0902 1.7594,-0.0886 1.8271,-0.0869 1.7594,-0.0853 1.8271,-0.0836 1.827,-0.082 1.7594,-0.0803 1.8271,-0.0785 1.7594,-0.0769 1.8271,-0.0751 1.827,-0.0734 1.7594,-0.0717 1.8271,-0.0699 1.7594,-0.0681 1.8271,-0.0663 1.827,-0.0645 1.7594,-0.0627 1.8271,-0.0609 1.7594,-0.0591 1.8271,-0.0573 1.827,-0.0554 1.7594,-0.0535 1.8271,-0.0517 1.7594,-0.0498 1.8271,-0.0479 1.827,-0.046 1.7594,-0.0442 1.8271,-0.0422 1.7594,-0.0403 1.8271,-0.0384 1.827,-0.0364 1.7594,-0.0346 1.8271,-0.0326 1.7594,-0.0306 1.8271,-0.0287 1.827,-0.0267 1.7594,-0.0247 1.8271,-0.0229 1.7594,-0.0208 1.8271,-0.0189 1.827,-0.0169 1.7594,-0.0148 1.8271,-0.013 1.7594,-0.0109 1.8271,-0.009 1.827,-0.007 1.7594,-0.005 1.8271,-0.003 1.7594,-10e-4"
   id="path180" />
   <path
   d="m 314.0903,510.06 1.4962,-0.134 1.827,-0.1571 1.8271,-0.1564 1.7594,-0.1557 1.8271,-0.1551 1.7594,-0.1544 1.827,-0.1536 1.8271,-0.153 1.7594,-0.1522 1.8271,-0.1515 1.7594,-0.1506 1.827,-0.15 1.8271,-0.149 1.7594,-0.1483 1.8271,-0.1474 1.7594,-0.1466 1.827,-0.1457 1.8271,-0.1448 1.7594,-0.1438 1.8271,-0.1429 1.7594,-0.142 1.827,-0.1407 1.8271,-0.0441 1.7594,0.005 1.8271,0.005 1.7594,0.005 1.827,0.005 1.8271,0.005 1.7594,0.005 1.8271,0.005 1.7594,0.005 1.827,0.005 1.8271,0.005 1.7594,0.005 1.8271,0.004 1.7594,0.005 1.827,0.004 1.8271,0.004 1.7594,0.004 1.8271,0.004 1.7594,0.004 1.827,0.004 1.8271,0.004 1.7594,0.004 1.8271,0.004 1.7594,0.004 1.827,0.004 1.8271,0.004 1.7594,0.004 1.8271,0.004 1.827,0.004 1.7594,0.004 1.8271,0.004 1.7594,0.003 1.8271,0.004 1.827,0.003 1.7594,0.003 1.8271,0.003 1.7594,0.003 1.8271,0.003 1.827,0.003 1.7594,0.003 1.8271,0.003 1.7594,0.003 1.8271,0.003 1.827,0.003 1.7594,0.003 1.8271,0.003 1.7594,0.003 1.8271,0.003 1.827,0.003 1.7594,0.003 1.8271,0.002 1.7594,0.002 1.8271,0.002 1.827,0.002 1.7594,0.002 1.8271,0.002 1.7594,0.002 1.8271,0.002 1.827,0.002 1.7594,0.002 1.8271,0.002 1.7594,0.002 1.8271,0.002 1.827,0.002 1.7594,0.002 1.8271,0.002 1.7594,10e-4 1.8271,0.001 1.827,10e-4 1.7594,0.001 1.8271,10e-4 1.7594,0.001 1.8271,10e-4 1.827,9e-4 1.7594,9e-4 1.8271,8e-4 1.7594,8e-4 1.8271,7e-4 1.827,5e-4 1.7594,6e-4 1.8271,4e-4 1.7594,4e-4 1.8271,4e-4 1.827,2e-4 1.7594,2e-4 1.8271,10e-5 H 510"
   id="path182" />
  </g><g
   style="fill:none;stroke:#000000;stroke-width:0.9;stroke-linecap:butt;stroke-linejoin:miter;stroke-dasharray:none"
   id="g190"
   transform="matrix(1,0,0,-1,0,600)">
   <path
   d="M 150,90 H 510"
   id="path186" />
   <path
   d="M 150,510 H 510"
   id="path188" />
  </g><g
   style="fill:none;stroke:#000000;stroke-width:1.8;stroke-linecap:butt;stroke-linejoin:miter;stroke-dasharray:none"
   id="g204"
   transform="matrix(1,0,0,-1,0,600)">
   <path
   d="m 330,90 v 6"
   id="path192" />
   <path
   d="m 330,510 v -6"
   id="path194" />
   <path
   d="m 150,90 v 12"
   id="path196" />
   <path
   d="M 150,510 V 498"
   id="path198" />
   <path
   d="m 510,90 v 12"
   id="path200" />
   <path
   d="M 510,510 V 498"
   id="path202" />
  </g><g
   style="fill:none;stroke:#000000;stroke-width:0.9;stroke-linecap:butt;stroke-linejoin:miter;stroke-dasharray:none"
   id="g216"
   transform="matrix(1,0,0,-1,0,600)">
   <path
   d="M 150,90 V 510"
   id="path212" />
   <path
   d="M 510,90 V 510"
   id="path214" />
  </g><g
   style="fill:none;stroke:#000000;stroke-width:1.8;stroke-linecap:butt;stroke-linejoin:miter;stroke-dasharray:none"
   id="g254"
   transform="matrix(1,0,0,-1,0,600)">
   <path
   d="m 150,142.5 h 6"
   id="path218" />
   <path
   d="m 510,142.5 h -6"
   id="path220" />
   <path
   d="m 150,247.5 h 6"
   id="path222" />
   <path
   d="m 510,247.5 h -6"
   id="path224" />
   <path
   d="m 150,352.5 h 6"
   id="path226" />
   <path
   d="m 510,352.5 h -6"
   id="path228" />
   <path
   d="m 150,457.5 h 6"
   id="path230" />
   <path
   d="m 510,457.5 h -6"
   id="path232" />
   <path
   d="m 150,90 h 12"
   id="path234" />
   <path
   d="M 510,90 H 498"
   id="path236" />
   <path
   d="m 150,195 h 12"
   id="path238" />
   <path
   d="M 510,195 H 498"
   id="path240" />
   <path
   d="m 150,300 h 12"
   id="path242" />
   <path
   d="M 510,300 H 498"
   id="path244" />
   <path
   d="m 150,405 h 12"
   id="path246" />
   <path
   d="M 510,405 H 498"
   id="path248" />
   <path
   d="m 150,510 h 12"
   id="path250" />
   <path
   d="M 510,510 H 498"
   id="path252" />
  </g><g
   style="fill:#000000;fill-rule:nonzero"
   id="g272"
   transform="matrix(1,0,0,-1,0,600)">
   <text
   style="font-style:normal;font-weight:normal;font-size:600px;font-family:Times, 'Nimbus Roman No9 L'"
   transform="matrix(0.056,0,0,-0.056,77,79)"
   id="text256">-400</text>
   <text
   style="font-style:normal;font-weight:normal;font-size:600px;font-family:Times, 'Nimbus Roman No9 L'"
   transform="matrix(0.056,0,0,-0.056,77,184)"
   id="text258">-200</text>
   <text
   style="font-style:normal;font-weight:normal;font-size:600px;font-family:Times, 'Nimbus Roman No9 L'"
   transform="matrix(0.056,0,0,-0.056,122,289)"
   id="text260">0</text>
   <text
   style="font-style:normal;font-weight:normal;font-size:600px;font-family:Times, 'Nimbus Roman No9 L'"
   transform="matrix(0.056,0,0,-0.056,88,394)"
   id="text262">200</text>
   <text
   style="font-style:normal;font-weight:normal;font-size:600px;font-family:Times, 'Nimbus Roman No9 L'"
   transform="matrix(0.056,0,0,-0.056,88,499)"
   id="text264">400</text>
   <text
   style="font-style:normal;font-weight:normal;font-size:600px;font-family:Times, 'Nimbus Roman No9 L'"
   transform="matrix(0,0.056,0.056,0,57,184)"
   id="text266">Frequency (cm</text>
   <text
   style="font-style:normal;font-weight:normal;font-size:600px;font-family:Times, 'Nimbus Roman No9 L'"
   transform="matrix(0,0.0396,0.0396,0,36.84,386)"
   id="text268">-1</text>
   <text
   style="font-style:normal;font-weight:normal;font-size:600px;font-family:Times, 'Nimbus Roman No9 L'"
   transform="matrix(0,0.056,0.056,0,57,406)"
   id="text270">)</text>
  </g><g
   style="fill:none;stroke:#000000;stroke-width:2.25;stroke-linecap:butt;stroke-linejoin:miter;stroke-dasharray:none"
   id="g276"
   transform="matrix(1,0,0,-1,0,600)">
   <path
   d="M 150,90 V 510 H 510 V 90 Z"
   id="path274" />
  </g>
<path
   d="M 610,600.00243 V 1.5000061e-5 h 600.0024 V 600.00243"
   style="fill:#ffffff;fill-opacity:1;fill-rule:nonzero;stroke:none;stroke-width:600.002"
   id="path533" /><path
   d="m 760.0006,428.64174 h 7.20003 7.20003 l 7.20003,-0.06 7.14003,-0.06 7.26003,-0.06 7.20003,-0.12 7.20003,-0.12 7.20002,-0.12 7.20003,-0.18001 7.20003,-0.12 7.20003,-0.24 7.20003,-0.18 7.20003,-0.18 7.20003,-0.24 7.20003,-0.24 7.20003,-0.3 7.20002,-0.24 7.20003,-0.3 7.20003,-0.3 7.20003,-0.30001 7.14003,-0.3 7.26003,-0.3 7.20003,-0.36 7.20003,-0.3 7.20003,-0.36 7.20003,-0.3 7.20002,-0.36001 7.20003,-0.36 7.14003,-0.3 7.26003,-0.36 7.20003,-0.36 7.20003,-0.3 7.20003,-0.36 7.20004,-0.3 7.2,-0.30001 7.2,-0.3 7.2001,-0.24 7.14,-0.3 7.26,-0.24 7.2001,-0.24 7.2,-0.24 7.2,-0.18 7.2,-0.18 7.2001,-0.12 7.2,-0.18 7.14,-0.06 7.2601,-0.12001 7.2,-0.06 7.2,-0.06 h 7.2"
   style="fill:none;stroke:#0000ff;stroke-width:1.80001;stroke-linecap:butt;stroke-linejoin:miter;stroke-miterlimit:10;stroke-dasharray:none;stroke-opacity:1"
   id="path535" /><path
   d="m 760.0006,414.30168 h 7.20003 l 7.20003,-0.06 7.20003,-0.12 7.14003,-0.18 7.26003,-0.24 7.20003,-0.24 7.20003,-0.3 7.20002,-0.36001 7.20003,-0.42 7.20003,-0.42 7.20003,-0.48 7.20003,-0.54 7.20003,-0.54001 7.20003,-0.6 7.20003,-0.66 7.20003,-0.66 7.20002,-0.66001 7.20003,-0.78 7.20003,-0.72 7.20003,-0.78001 7.14003,-0.84 7.26003,-0.78 7.20003,-0.84001 7.20003,-0.9 7.20003,-0.84 7.20003,-0.90001 7.20002,-0.84 7.20003,-0.9 7.14003,-0.84001 7.26003,-0.9 7.20003,-0.84 7.20003,-0.84001 7.20003,-0.84 7.20004,-0.78 7.2,-0.78001 7.2,-0.78 7.2001,-0.72 7.14,-0.66 7.26,-0.66001 7.2001,-0.54 7.2,-0.6 7.2,-0.48 7.2,-0.42001 7.2001,-0.42 7.2,-0.36 7.14,-0.24 7.2601,-0.24 7.2,-0.18 7.2,-0.06 7.2,-0.06"
   style="fill:none;stroke:#0000ff;stroke-width:1.80001;stroke-linecap:butt;stroke-linejoin:miter;stroke-miterlimit:10;stroke-dasharray:none;stroke-opacity:1"
   id="path537" /><path
   d="m 760.0006,360.12146 7.20003,0.06 h 7.20003 7.20003 l 7.14003,0.06 7.26003,0.06 7.20003,0.12 7.20003,0.06 7.20002,0.12 7.20003,0.12 7.20003,0.18001 7.20003,0.12 7.20003,0.24 7.20003,0.18 7.20003,0.24 7.20003,0.24 7.20003,0.24 7.20002,0.3 7.20003,0.3 7.20003,0.3 7.20003,0.30001 7.14003,0.36 7.26003,0.36 7.20003,0.36 7.20003,0.36 7.20003,0.36 7.20003,0.36 7.20002,0.42001 7.20003,0.36 7.14003,0.36 7.26003,0.42 7.20003,0.36 7.20003,0.36 7.20003,0.36 7.20004,0.30001 7.2,0.36 7.2,0.3 7.2001,0.3 7.14,0.3 7.26,0.24 7.2001,0.24 7.2,0.24 7.2,0.18 7.2,0.18001 7.2001,0.18 7.2,0.12 7.14,0.12 7.2601,0.06 7.2,0.06 7.2,0.06 h 7.2"
   style="fill:none;stroke:#0000ff;stroke-width:1.80001;stroke-linecap:butt;stroke-linejoin:miter;stroke-miterlimit:10;stroke-dasharray:none;stroke-opacity:1"
   id="path539" /><path
   d="m 760.0006,350.46142 h 7.20003 l 7.20003,0.06 7.20003,0.06 7.14003,0.12 7.26003,0.12 7.20003,0.18001 7.20003,0.18 7.20002,0.18 7.20003,0.24 7.20003,0.24 7.20003,0.24 7.20003,0.3 7.20003,0.3 7.20003,0.3 7.20003,0.36 7.20003,0.36001 7.20002,0.3 7.20003,0.36 7.20003,0.36 7.20003,0.36 7.14003,0.36 7.26003,0.36 7.20003,0.36001 7.20003,0.36 7.20003,0.36 7.20003,0.36 7.20002,0.3 7.20003,0.36 7.14003,0.3 7.26003,0.30001 7.20003,0.3 7.20003,0.3 7.20003,0.24 7.20004,0.24 7.2,0.24 7.2,0.24 7.2001,0.18 7.14,0.18 7.26,0.18 7.2001,0.18 7.2,0.12001 7.2,0.18 7.2,0.06 7.2001,0.12 7.2,0.06 7.14,0.12 h 7.2601 l 7.2,0.06 7.2,0.06 h 7.2"
   style="fill:none;stroke:#ff0000;stroke-width:5.40002;stroke-linecap:butt;stroke-linejoin:miter;stroke-miterlimit:10;stroke-dasharray:none;stroke-opacity:1"
   id="path541" /><path
   d="m 760.0006,300.12122 7.20003,-0.54 7.20003,-0.42 7.20003,-0.42 7.14003,-0.48001 7.26003,-0.42 7.20003,-0.42 7.20003,-0.48 7.20002,-0.48 7.20003,-0.42001 7.20003,-0.48 7.20003,-0.48 7.20003,-0.48 7.20003,-0.48 7.20003,-0.48 7.20003,-0.54001 7.20003,-0.48 7.20002,-0.48 7.20003,-0.54 7.20003,-0.48001 7.20003,-0.48 7.14003,-0.48 7.26003,-0.48 7.20003,-0.48 7.20003,-0.48 7.20003,-0.48001 7.20003,-0.42 7.20002,-0.48 7.20003,-0.42 7.14003,-0.42 7.26003,-0.42001 7.20003,-0.36 7.20003,-0.36 7.20003,-0.36 7.20004,-0.36 7.2,-0.3 7.2,-0.3 7.2001,-0.3 7.14,-0.30001 7.26,-0.24 7.2001,-0.24 7.2,-0.18 7.2,-0.18 7.2,-0.18 7.2001,-0.12 7.2,-0.12 7.14,-0.12 7.2601,-0.06 7.2,-0.06 7.2,-0.06 h 7.2"
   style="fill:none;stroke:#0000ff;stroke-width:1.80001;stroke-linecap:butt;stroke-linejoin:miter;stroke-miterlimit:10;stroke-dasharray:none;stroke-opacity:1"
   id="path543" /><path
   d="m 760.0006,300.00122 7.20003,-1.44001 7.20003,-1.44 7.20003,-1.44001 7.14003,-1.44 7.26003,-1.44001 7.20003,-1.5 7.20003,-1.44001 7.20002,-1.50001 7.20003,-1.5 7.20003,-1.50001 7.20003,-1.5 7.20003,-1.56001 7.20003,-1.50001 7.20003,-1.56 7.20003,-1.56001 7.20003,-1.50001 7.20002,-1.56 7.20003,-1.56001 7.20003,-1.56 7.20003,-1.56001 7.14003,-1.56001 7.26003,-1.56 7.20003,-1.56001 7.20003,-1.50001 7.20003,-1.5 7.20003,-1.56001 7.20002,-1.44 7.20003,-1.50001 7.14003,-1.44 7.26003,-1.44001 7.20003,-1.44001 7.20003,-1.38 7.20003,-1.38001 7.20004,-1.38 7.2,-1.32001 7.2,-1.26 7.2001,-1.26001 7.14,-1.2 7.26,-1.14001 7.2001,-1.14 7.2,-1.02001 7.2,0.24 7.2,0.18001 7.2001,0.12 7.2,0.18 7.14,0.12 7.2601,0.06 7.2,0.12 h 7.2 7.2"
   style="fill:none;stroke:#0000ff;stroke-width:1.80001;stroke-linecap:butt;stroke-linejoin:miter;stroke-miterlimit:10;stroke-dasharray:none;stroke-opacity:1"
   id="path545" /><path
   d="m 760.0006,299.82122 7.20003,-2.10001 7.20003,-2.28001 7.20003,-2.34001 7.14003,-2.28001 7.26003,-2.28001 7.20003,-2.28 7.20003,-2.28001 7.20002,-2.28001 7.20003,-2.22001 7.20003,-2.28001 7.20003,-2.22001 7.20003,-2.28001 7.20003,-2.22001 7.20003,-2.22001 7.20003,-2.22001 7.20003,-2.16 7.20002,-2.22001 7.20003,-2.16001 7.20003,-2.16001 7.20003,-2.10001 7.14003,-2.16001 7.26003,-2.10001 7.20003,-2.1 7.20003,-2.04001 7.20003,-2.04001 7.20003,-1.98001 7.20002,-1.98001 7.20003,-1.98001 7.14003,-0.72 7.26003,0.24 7.20003,0.24 7.20003,0.18 7.20003,0.24001 7.20004,0.24 7.2,0.3 7.2,0.24 7.2001,0.24 7.14,0.24 7.26,0.24 7.2001,0.24 7.2,0.12 7.2,-0.96 7.2,-0.96 7.2001,-0.84001 7.2,-0.78 7.14,-0.6 7.2601,-0.54001 7.2,-0.36 7.2,-0.24 7.2,-0.12"
   style="fill:none;stroke:#0000ff;stroke-width:1.80001;stroke-linecap:butt;stroke-linejoin:miter;stroke-miterlimit:10;stroke-dasharray:none;stroke-opacity:1"
   id="path547" /><path
   d="m 760.0006,238.68097 7.20003,-0.06 7.20003,-0.12 7.20003,-0.18 7.14003,-0.24 7.26003,-0.36 7.20003,-0.42 7.20003,-0.48 7.20002,-0.48001 h 7.20003 7.20003 7.20003 7.20003 l 7.20003,0.06 h 7.20003 l 7.20003,0.06 h 7.20003 l 7.20002,0.06 7.20003,0.12 7.20003,0.06 7.20003,0.06 7.14003,0.12 7.26003,0.12 7.20003,0.12 7.20003,0.12 7.20003,0.18 7.20003,0.18 7.20002,0.18 7.20003,0.18 7.14003,-1.02 7.26003,-1.92001 7.20003,-1.86001 7.20003,-1.44 7.20003,0.36 7.20004,0.3 7.2,0.36 7.2,0.3 7.2001,0.24 7.14,0.3 7.26,0.24 7.2001,0.24001 7.2,0.24 7.2,0.18 7.2,0.18 7.2001,0.18 7.2,0.12 7.14,0.12 7.2601,0.06 7.2,0.06 7.2,0.06 h 7.2"
   style="fill:none;stroke:#0000ff;stroke-width:1.80001;stroke-linecap:butt;stroke-linejoin:miter;stroke-miterlimit:10;stroke-dasharray:none;stroke-opacity:1"
   id="path549" /><path
   d="m 760.0006,236.34096 h 7.20003 7.20003 7.20003 l 7.14003,-0.06 h 7.26003 7.20003 7.20003 l 7.20002,-0.06 7.20003,-0.6 7.20003,-0.72 7.20003,-0.72 7.20003,-0.84001 7.20003,-0.9 7.20003,-0.9 7.20003,-0.96001 7.20003,-1.08 7.20002,-1.08001 7.20003,-1.08 7.20003,-0.3 7.20003,0.3 7.14003,0.36 7.26003,0.36 7.20003,0.36 7.20003,0.36 7.20003,0.42001 7.20003,0.36 7.20002,0.36 7.20003,0.36 7.14003,0.36 7.26003,0.36 7.20003,0.36 7.20003,-0.06 7.20003,-1.74 7.20004,-1.80001 7.2,-1.68001 7.2,-1.62 7.2001,-0.90001 7.14,0.12 7.26,0.12 7.2001,0.06 7.2,0.06 7.2,0.12001 7.2,0.06 7.2001,0.06 7.2,0.06 h 7.14 l 7.2601,0.06 h 7.2 l 7.2,0.06 h 7.2"
   style="fill:none;stroke:#0000ff;stroke-width:1.80001;stroke-linecap:butt;stroke-linejoin:miter;stroke-miterlimit:10;stroke-dasharray:none;stroke-opacity:1"
   id="path551" /><path
   d="m 760.0006,223.38091 h 7.20003 7.20003 l 7.20003,0.06 7.14003,0.12 7.26003,0.06 7.20003,0.12 7.20003,0.18 7.20002,0.12001 7.20003,0.24 7.20003,0.18 7.20003,0.24 7.20003,0.24 7.20003,0.24 7.20003,0.3 7.20003,0.24 7.20003,0.3 7.20002,0.36 7.20003,0.30001 7.20003,-0.54001 7.20003,-1.2 7.14003,-1.26001 7.26003,-1.26 7.20003,-0.66 7.20003,0.12 7.20003,0.12 7.20003,0.18 7.20002,0.12 7.20003,0.12 7.14003,0.18 7.26003,0.12 7.20003,0.12 7.20003,0.12 7.20003,0.12 7.20004,0.12 7.2,0.12 7.2,0.12 7.2001,-0.6 7.14,-1.56001 7.26,-1.44 7.2001,-1.38001 7.2,-1.32 7.2,-1.20001 7.2,-1.14 7.2001,-1.02001 7.2,-0.06 7.14,0.48001 7.2601,0.36 7.2,0.3 7.2,0.18 7.2,0.06"
   style="fill:none;stroke:#0000ff;stroke-width:1.80001;stroke-linecap:butt;stroke-linejoin:miter;stroke-miterlimit:10;stroke-dasharray:none;stroke-opacity:1"
   id="path553" /><path
   d="m 760.0006,219.9609 h 7.20003 7.20003 7.20003 l 7.14003,0.06 h 7.26003 l 7.20003,0.06 7.20003,0.06 7.20002,0.06 7.20003,0.06 7.20003,0.06 7.20003,0.06 7.20003,0.12 7.20003,0.06 7.20003,0.12 7.20003,0.12 7.20003,0.06 7.20002,0.12 7.20003,0.12 7.20003,0.12 7.20003,0.12 7.14003,0.18001 7.26003,0.12 7.20003,-0.54001 7.20003,-1.32 7.20003,-1.38001 7.20003,-1.38 7.20002,-1.38001 7.20003,-1.44 7.14003,-1.44001 7.26003,-1.44001 7.20003,-1.5 7.20003,-1.50001 7.20003,-1.5 7.20004,-0.90001 7.2,0.78001 7.2,0.78 7.2001,0.72 7.14,0.78 7.26,0.78001 7.2001,0.72 7.2,0.72 7.2,0.72001 7.2,0.66 7.2001,0.6 7.2,-0.24 7.14,-0.78 7.2601,-0.54 7.2,-0.48001 7.2,-0.24 7.2,-0.06"
   style="fill:none;stroke:#0000ff;stroke-width:1.80001;stroke-linecap:butt;stroke-linejoin:miter;stroke-miterlimit:10;stroke-dasharray:none;stroke-opacity:1"
   id="path555" /><path
   d="m 760.0006,190.56078 h 7.20003 l 7.20003,-0.06 h 7.20003 l 7.14003,-0.06 7.26003,0.18 7.20003,0.18 7.20003,0.18 7.20002,0.24 7.20003,0.3 7.20003,0.30001 7.20003,0.36 7.20003,0.36 7.20003,0.36 7.20003,0.42 7.20003,0.42 7.20003,0.48001 7.20002,0.48 7.20003,0.54 7.20003,0.54 7.20003,0.54 7.14003,0.60001 7.26003,0.6 7.20003,0.6 7.20003,0.66 7.20003,0.66001 7.20003,0.66 7.20002,0.66 7.20003,0.72 7.14003,0.72001 7.26003,0.72 7.20003,0.72 7.20003,0.78001 7.20003,0.72 7.20004,0.18 7.2,-1.50001 7.2,-1.5 7.2001,-1.50001 7.14,-1.56 7.26,-1.50001 7.2001,-1.50001 7.2,-1.56 7.2,-1.50001 7.2,-1.5 7.2001,-1.50001 7.2,-1.50001 7.14,-1.44 7.2601,-1.50001 7.2,-1.26 h 7.2 7.2"
   style="fill:none;stroke:#0000ff;stroke-width:1.80001;stroke-linecap:butt;stroke-linejoin:miter;stroke-miterlimit:10;stroke-dasharray:none;stroke-opacity:1"
   id="path557" /><path
   d="m 760.0006,190.20078 h 7.20003 l 7.20003,0.06 7.20003,0.06 7.14003,0.12 7.26003,-0.06 7.20003,-0.06 7.20003,-0.06 7.20002,-0.12 7.20003,-0.12 7.20003,-0.06 7.20003,-0.12 7.20003,-0.18 7.20003,-0.12 7.20003,-0.12 7.20003,-0.18 7.20003,-0.18001 7.20002,-0.12 7.20003,-0.18 7.20003,-0.18 7.20003,-0.18 7.14003,-0.18 7.26003,-0.18 7.20003,-0.24 7.20003,-0.18 7.20003,-0.18 7.20003,-0.18 7.20002,-0.18 7.20003,-0.18 7.14003,-0.18 7.26003,-0.18001 7.20003,-0.18 7.20003,-0.18 7.20003,-0.18 7.20004,-0.12 7.2,-0.18 7.2,-0.12 7.2001,-0.18 7.14,-0.12 7.26,-0.12 7.2001,-0.12 7.2,-0.12 7.2,-0.06 7.2,-0.12 7.2001,-0.06 7.2,-0.06 7.14,-0.06 h 7.2601 l 7.2,-0.24 7.2,-1.32001 7.2,-0.84"
   style="fill:none;stroke:#0000ff;stroke-width:1.80001;stroke-linecap:butt;stroke-linejoin:miter;stroke-miterlimit:10;stroke-dasharray:none;stroke-opacity:1"
   id="path559" /><path
   d="m 760.0006,185.40076 h 7.20003 7.20003 l 7.20003,-0.06 h 7.14003 7.26003 l 7.20003,-0.06 h 7.20003 7.20002 l 7.20003,-0.06 7.20003,-0.06 h 7.20003 l 7.20003,-0.06 7.20003,-0.06 7.20003,-0.06 7.20003,-0.06 7.20003,-0.06 7.20002,-0.06 7.20003,-0.12 7.20003,-0.06 7.20003,-0.12 7.14003,-0.06 7.26003,-0.12 7.20003,-0.12 7.20003,-0.12001 7.20003,-0.12 7.20003,-0.12 7.20002,-0.12 7.20003,-0.12 7.14003,-0.12 7.26003,-0.12 7.20003,-0.18 7.20003,-0.12 7.20003,-0.18 7.20004,-0.12 7.2,-0.12 7.2,-0.18 7.2001,-0.12 7.14,-0.12 7.26,-0.12 7.2001,-0.12 7.2,-0.12 7.2,-0.12 7.2,-0.06 7.2001,-0.12001 7.2,-0.06 7.14,-0.06 7.2601,-0.06 h 7.2 l 7.2,-0.06 h 7.2"
   style="fill:none;stroke:#0000ff;stroke-width:1.80001;stroke-linecap:butt;stroke-linejoin:miter;stroke-miterlimit:10;stroke-dasharray:none;stroke-opacity:1"
   id="path561" /><path
   d="m 760.0006,146.5806 7.20003,0.06 h 7.20003 l 7.20003,0.12 7.14003,0.12001 7.26003,0.18 7.20003,0.18 7.20003,0.18 7.20002,0.3 7.20003,0.3 7.20003,0.3 7.20003,0.36 7.20003,0.42 7.20003,0.42001 7.20003,0.48 7.20003,0.48 7.20003,0.48 7.20002,0.6 7.20003,0.54001 7.20003,0.6 7.20003,0.66 7.14003,0.66 7.26003,0.72001 7.20003,0.72 7.20003,0.72 7.20003,0.78001 7.20003,0.78 7.20002,0.78 7.20003,0.84001 7.14003,0.84 7.26003,0.9 7.20003,0.84001 7.20003,0.9 7.20003,0.9 7.20004,0.90001 7.2,0.96 7.2,0.9 7.2001,0.90001 7.14,0.9 7.26,0.84 7.2001,0.84001 7.2,0.84 7.2,0.78 7.2,0.72001 7.2001,0.66 7.2,1.26001 7.14,1.32 7.2601,1.38001 7.2,1.38 7.2,1.32001 7.2,0.84"
   style="fill:none;stroke:#0000ff;stroke-width:1.80001;stroke-linecap:butt;stroke-linejoin:miter;stroke-miterlimit:10;stroke-dasharray:none;stroke-opacity:1"
   id="path563" /><path
   d="m 760.0006,139.38058 7.20003,0.06 7.20003,0.06 7.20003,0.06 7.14003,0.12 7.26003,0.18 7.20003,0.24 7.20003,0.24 7.20002,0.3 7.20003,0.36 7.20003,0.36 7.20003,0.36 7.20003,0.48001 7.20003,0.48 7.20003,0.48 7.20003,0.6 7.20003,0.54 7.20002,0.66001 7.20003,0.66 7.20003,0.66 7.20003,0.72001 7.14003,0.78 7.26003,0.78 7.20003,0.84001 7.20003,0.84 7.20003,0.9 7.20003,0.90001 7.20002,0.96 7.20003,0.96 7.14003,0.96001 7.26003,1.08 7.20003,1.02001 7.20003,1.08 7.20003,1.14 7.20004,1.08001 7.2,1.2 7.2,1.14001 7.2001,1.2 7.14,1.26001 7.26,1.26 7.2001,1.26001 7.2,1.26 7.2,1.32001 7.2,1.32 7.2001,1.32001 7.2,0.72 7.14,0.54 7.2601,0.42001 7.2,0.3 7.2,0.18 7.2,0.06"
   style="fill:none;stroke:#0000ff;stroke-width:1.80001;stroke-linecap:butt;stroke-linejoin:miter;stroke-miterlimit:10;stroke-dasharray:none;stroke-opacity:1"
   id="path565" /><path
   d="m 760.0006,130.98054 h 7.20003 l 7.20003,-0.06 7.20003,-0.06 7.14003,-0.12 7.26003,-0.12 7.20003,-0.18 7.20003,-0.18 7.20002,-0.24 7.20003,-0.24 7.20003,-0.3 7.20003,-0.30001 7.20003,-0.3 7.20003,-0.36 7.20003,-0.36 7.20003,-0.36 7.20003,-0.42 7.20002,-0.36 7.20003,-0.42001 7.20003,-0.48 7.20003,-0.42 7.14003,0.3 7.26003,1.38001 7.20003,1.38 7.20003,1.44001 7.20003,1.38 7.20003,1.38001 7.20002,1.32 7.20003,1.32001 7.14003,1.32001 7.26003,1.26 7.20003,1.26001 7.20003,1.2 7.20003,1.2 7.20004,1.14001 7.2,1.08 7.2,1.02001 7.2001,0.96 7.14,0.90001 7.26,0.84 7.2001,0.84 7.2,0.72001 7.2,0.66 7.2,0.54 7.2001,0.54 7.2,0.42 7.14,0.36001 7.2601,0.3 7.2,0.18 7.2,0.12 7.2,0.06"
   style="fill:none;stroke:#0000ff;stroke-width:1.80001;stroke-linecap:butt;stroke-linejoin:miter;stroke-miterlimit:10;stroke-dasharray:none;stroke-opacity:1"
   id="path567" /><path
   d="m 760.0006,123.18051 h 7.20003 7.20003 7.20003 7.14003 7.26003 7.20003 7.20003 7.20002 7.20003 7.20003 7.20003 7.20003 7.20003 7.20003 7.20003 7.20003 l 7.20002,-0.06 h 7.20003 l 7.20003,0.06 7.20003,1.38001 7.14003,0.72 7.26003,-0.48 7.20003,-0.42001 7.20003,-0.48 7.20003,-0.48 7.20003,-0.36 7.20002,-0.06 h 7.20003 7.14003 l 7.26003,-0.06 h 7.20003 7.20003 l 7.20003,-0.06 h 7.20004 7.2 l 7.2,-0.06 h 7.2001 7.14 l 7.26,-0.06 h 7.2001 7.2 l 7.2,-0.06 h 7.2 l 7.2001,0.12 7.2,0.24 7.14,0.18 7.2601,0.18 7.2,0.06 7.2,0.12 h 7.2"
   style="fill:none;stroke:#0000ff;stroke-width:1.80001;stroke-linecap:butt;stroke-linejoin:miter;stroke-miterlimit:10;stroke-dasharray:none;stroke-opacity:1"
   id="path569" /><path
   d="m 760.0006,107.70045 h 7.20003 7.20003 l 7.20003,0.06 7.14003,0.06 7.26003,0.12 7.20003,0.12 7.20003,0.78 7.20002,0.90001 7.20003,0.96 7.20003,1.02 7.20003,1.14001 7.20003,1.14 7.20003,1.20001 7.20003,1.26 7.20003,1.32001 7.20003,1.32 7.20002,1.32001 7.20003,1.38 7.20003,1.32001 h 7.20003 7.14003 7.26003 l 7.20003,-0.06 h 7.20003 7.20003 l 7.20003,-0.06 7.20002,-0.48 7.20003,-0.42 7.14003,-0.42001 7.26003,-0.48 7.20003,-0.42 7.20003,-0.36 7.20003,-0.42 7.20004,-0.36 7.2,-0.36001 7.2,0.42001 7.2001,0.48 7.14,0.48 7.26,0.42 7.2001,0.42 7.2,0.36 7.2,0.36001 7.2,0.3 7.2001,0.18 h 7.2 7.14 l 7.2601,-0.06 h 7.2 7.2 7.2"
   style="fill:none;stroke:#0000ff;stroke-width:1.80001;stroke-linecap:butt;stroke-linejoin:miter;stroke-miterlimit:10;stroke-dasharray:none;stroke-opacity:1"
   id="path571" /><path
   d="m 760.0006,105.66044 7.20003,0.06 7.20003,0.24 7.20003,0.3 7.14003,0.48 7.26003,0.60001 7.20003,0.66 7.20003,0.18 7.20002,0.18 7.20003,0.18 7.20003,0.18 7.20003,0.24 7.20003,0.24 7.20003,0.24 7.20003,0.30001 7.20003,0.3 7.20003,0.3 7.20002,0.36 7.20003,0.36 7.20003,0.36 7.20003,0.42 7.14003,0.42001 7.26003,0.42 7.20003,0.48 7.20003,0.48 7.20003,0.48 7.20003,0.48001 7.20002,0.48 7.20003,0.54 7.14003,0.54 7.26003,0.48 7.20003,0.54001 7.20003,0.54 7.20003,0.48 7.20004,0.54 7.2,0.48 7.2,-0.3 7.2001,-0.3 7.14,-0.36 7.26,-0.24 7.2001,-0.3 7.2,-0.24 7.2,-0.24 7.2,-0.18 7.2001,-0.18001 7.2,-0.12 7.14,-0.12 7.2601,-0.12 7.2,-0.06 h 7.2 l 7.2,-0.06"
   style="fill:none;stroke:#0000ff;stroke-width:1.80001;stroke-linecap:butt;stroke-linejoin:miter;stroke-miterlimit:10;stroke-dasharray:none;stroke-opacity:1"
   id="path573" /><path
   d="m 760.0006,94.200394 h 7.20003 7.20003 7.20003 l 7.14003,-0.06 h 7.26003 7.20003 7.20003 7.20002 7.20003 l 7.20003,-0.06 h 7.20003 7.20003 7.20003 l 7.20003,-0.06 h 7.20003 7.20003 7.20002 l 7.20003,-0.06 h 7.20003 7.20003 l 7.14003,-0.06 h 7.26003 7.20003 l 7.20003,-0.06 h 7.20003 7.20003 l 7.20002,-0.06 h 7.20003 7.14003 7.26003 l 7.20003,-0.06 h 7.20003 7.20003 l 7.20004,-0.06 7.2,0.240001 7.2,0.420002 7.2001,0.360001 7.14,0.300002 7.26,0.360001 7.2001,0.300001 7.2,0.240001 7.2,0.240001 7.2,0.240001 7.2001,0.180001 7.2,0.12 7.14,0.120001 7.2601,0.12 7.2,0.06 7.2,0.06 h 7.2"
   style="fill:none;stroke:#0000ff;stroke-width:1.80001;stroke-linecap:butt;stroke-linejoin:miter;stroke-miterlimit:10;stroke-dasharray:none;stroke-opacity:1"
   id="path575" /><path
   d="m 952.84138,89.940376 1.56,0.120001 7.20003,0.540002 7.14003,0.540002 7.26003,0.480002 7.20003,0.540002 7.20003,0.420002 7.20003,0.480002 7.20004,0.420002 7.2,0.18 h 7.2 7.2001 7.14 l 7.26,-0.06 h 7.2001 7.2 7.2 7.2 7.2001 7.2 7.14 l 7.2601,-0.06 h 7.2 7.2 7.2"
   style="fill:none;stroke:#0000ff;stroke-width:1.80001;stroke-linecap:butt;stroke-linejoin:miter;stroke-miterlimit:10;stroke-dasharray:none;stroke-opacity:1"
   id="path577" /><path
   d="M 760.0006,90.000377 H 1120.002"
   style="fill:none;stroke:#000000;stroke-width:0.900004;stroke-linecap:butt;stroke-linejoin:miter;stroke-miterlimit:10;stroke-dasharray:none;stroke-opacity:1"
   id="path581" /><path
   d="m 940.00133,90.000377 v 6.000024"
   style="fill:none;stroke:#000000;stroke-width:1.80001;stroke-linecap:butt;stroke-linejoin:miter;stroke-miterlimit:10;stroke-dasharray:none;stroke-opacity:1"
   id="path585" /><path
   d="M 760.0006,510.00206 V 498.00202"
   style="fill:none;stroke:#000000;stroke-width:1.80001;stroke-linecap:butt;stroke-linejoin:miter;stroke-miterlimit:10;stroke-dasharray:none;stroke-opacity:1"
   id="path587" /><path
   d="M 760.0006,90.000377 V 102.00042"
   style="fill:none;stroke:#000000;stroke-width:1.80001;stroke-linecap:butt;stroke-linejoin:miter;stroke-miterlimit:10;stroke-dasharray:none;stroke-opacity:1"
   id="path589" /><path
   d="M 1120.002,510.00206 V 498.00202"
   style="fill:none;stroke:#000000;stroke-width:1.80001;stroke-linecap:butt;stroke-linejoin:miter;stroke-miterlimit:10;stroke-dasharray:none;stroke-opacity:1"
   id="path591" /><path
   d="M 1120.002,90.000377 V 102.00042"
   style="fill:none;stroke:#000000;stroke-width:1.80001;stroke-linecap:butt;stroke-linejoin:miter;stroke-miterlimit:10;stroke-dasharray:none;stroke-opacity:1"
   id="path593" /><g
   id="g595"
   transform="matrix(31.080125,0,0,-31.080125,140.35107,543.59398)"><text
     xml:space="preserve"
     transform="scale(1,-1)"
     style="font-variant:normal;font-weight:normal;font-size:1px;font-family:Symbol;-inkscape-font-specification:Symbol;writing-mode:lr-tb;fill:#000000;fill-opacity:1;fill-rule:nonzero;stroke:none"
     id="text599"><tspan
       x="0"
       y="0"
       id="tspan597"></tspan></text></g><g
   id="g601"
   transform="matrix(31.080125,0,0,-31.080125,499.99251,543.11397)"><text
     xml:space="preserve"
     transform="scale(1,-1)"
     style="font-style:italic;font-variant:normal;font-size:1px;font-family:Times;-inkscape-font-specification:Times-Italic;writing-mode:lr-tb;fill:#000000;fill-opacity:1;fill-rule:nonzero;stroke:none"
     id="text605"><tspan
       x="0"
       y="0"
       id="tspan603">Y</tspan></text></g><path
   d="M 760.0006,510.00206 V 90.000377"
   style="fill:none;stroke:#000000;stroke-width:0.900004;stroke-linecap:butt;stroke-linejoin:miter;stroke-miterlimit:10;stroke-dasharray:none;stroke-opacity:1"
   id="path607" /><path
   d="M 1120.002,510.00206 V 90.000377"
   style="fill:none;stroke:#000000;stroke-width:0.900004;stroke-linecap:butt;stroke-linejoin:miter;stroke-miterlimit:10;stroke-dasharray:none;stroke-opacity:1"
   id="path609" /><path
   d="m 760.0006,457.50185 h 6.00003"
   style="fill:none;stroke:#000000;stroke-width:1.80001;stroke-linecap:butt;stroke-linejoin:miter;stroke-miterlimit:10;stroke-dasharray:none;stroke-opacity:1"
   id="path611" /><path
   d="m 1120.002,457.50185 h -6"
   style="fill:none;stroke:#000000;stroke-width:1.80001;stroke-linecap:butt;stroke-linejoin:miter;stroke-miterlimit:10;stroke-dasharray:none;stroke-opacity:1"
   id="path613" /><path
   d="m 760.0006,352.50143 h 6.00003"
   style="fill:none;stroke:#000000;stroke-width:1.80001;stroke-linecap:butt;stroke-linejoin:miter;stroke-miterlimit:10;stroke-dasharray:none;stroke-opacity:1"
   id="path615" /><path
   d="m 1120.002,352.50143 h -6"
   style="fill:none;stroke:#000000;stroke-width:1.80001;stroke-linecap:butt;stroke-linejoin:miter;stroke-miterlimit:10;stroke-dasharray:none;stroke-opacity:1"
   id="path617" /><path
   d="m 760.0006,247.50101 h 6.00003"
   style="fill:none;stroke:#000000;stroke-width:1.80001;stroke-linecap:butt;stroke-linejoin:miter;stroke-miterlimit:10;stroke-dasharray:none;stroke-opacity:1"
   id="path619" /><path
   d="m 1120.002,247.50101 h -6"
   style="fill:none;stroke:#000000;stroke-width:1.80001;stroke-linecap:butt;stroke-linejoin:miter;stroke-miterlimit:10;stroke-dasharray:none;stroke-opacity:1"
   id="path621" /><path
   d="m 760.0006,142.50059 h 6.00003"
   style="fill:none;stroke:#000000;stroke-width:1.80001;stroke-linecap:butt;stroke-linejoin:miter;stroke-miterlimit:10;stroke-dasharray:none;stroke-opacity:1"
   id="path623" /><path
   d="m 1120.002,142.50059 h -6"
   style="fill:none;stroke:#000000;stroke-width:1.80001;stroke-linecap:butt;stroke-linejoin:miter;stroke-miterlimit:10;stroke-dasharray:none;stroke-opacity:1"
   id="path625" /><path
   d="m 760.0006,405.00164 h 12.00005"
   style="fill:none;stroke:#000000;stroke-width:1.80001;stroke-linecap:butt;stroke-linejoin:miter;stroke-miterlimit:10;stroke-dasharray:none;stroke-opacity:1"
   id="path631" /><path
   d="m 1120.002,405.00164 h -12"
   style="fill:none;stroke:#000000;stroke-width:1.80001;stroke-linecap:butt;stroke-linejoin:miter;stroke-miterlimit:10;stroke-dasharray:none;stroke-opacity:1"
   id="path633" /><path
   d="m 760.0006,300.00122 h 12.00005"
   style="fill:none;stroke:#000000;stroke-width:1.80001;stroke-linecap:butt;stroke-linejoin:miter;stroke-miterlimit:10;stroke-dasharray:none;stroke-opacity:1"
   id="path635" /><path
   d="m 1120.002,300.00122 h -12"
   style="fill:none;stroke:#000000;stroke-width:1.80001;stroke-linecap:butt;stroke-linejoin:miter;stroke-miterlimit:10;stroke-dasharray:none;stroke-opacity:1"
   id="path637" /><path
   d="m 760.0006,195.0008 h 12.00005"
   style="fill:none;stroke:#000000;stroke-width:1.80001;stroke-linecap:butt;stroke-linejoin:miter;stroke-miterlimit:10;stroke-dasharray:none;stroke-opacity:1"
   id="path639" /><path
   d="m 1120.002,195.0008 h -12"
   style="fill:none;stroke:#000000;stroke-width:1.80001;stroke-linecap:butt;stroke-linejoin:miter;stroke-miterlimit:10;stroke-dasharray:none;stroke-opacity:1"
   id="path641" /><path
   d="m 760.0006,90.000377 h 12.00005"
   style="fill:none;stroke:#000000;stroke-width:1.80001;stroke-linecap:butt;stroke-linejoin:miter;stroke-miterlimit:10;stroke-dasharray:none;stroke-opacity:1"
   id="path643" /><path
   d="m 1120.002,90.000377 h -12"
   style="fill:none;stroke:#000000;stroke-width:1.80001;stroke-linecap:butt;stroke-linejoin:miter;stroke-miterlimit:10;stroke-dasharray:none;stroke-opacity:1"
   id="path645" /><g
   id="g647"
   transform="matrix(33.600135,0,0,-33.600135,687.28031,521.16211)"><text
     xml:space="preserve"
     transform="scale(1,-1)"
     style="font-variant:normal;font-weight:normal;font-size:1px;font-family:Times;-inkscape-font-specification:Times-Roman;writing-mode:lr-tb;fill:#000000;fill-opacity:1;fill-rule:nonzero;stroke:none"
     id="text651"><tspan
       x="0 0.333 0.833 1.3329999"
       y="0"
       sodipodi:role="line"
       id="tspan649">-400</tspan></text></g><g
   id="g653"
   transform="matrix(33.600135,0,0,-33.600135,687.28031,416.16169)"><text
     xml:space="preserve"
     transform="scale(1,-1)"
     style="font-variant:normal;font-weight:normal;font-size:1px;font-family:Times;-inkscape-font-specification:Times-Roman;writing-mode:lr-tb;fill:#000000;fill-opacity:1;fill-rule:nonzero;stroke:none"
     id="text657"><tspan
       x="0 0.333 0.833 1.3329999"
       y="0"
       sodipodi:role="line"
       id="tspan655">-200</tspan></text></g><g
   id="g659"
   transform="matrix(33.600135,0,0,-33.600135,732.16049,311.16127)"><text
     xml:space="preserve"
     transform="scale(1,-1)"
     style="font-variant:normal;font-weight:normal;font-size:1px;font-family:Times;-inkscape-font-specification:Times-Roman;writing-mode:lr-tb;fill:#000000;fill-opacity:1;fill-rule:nonzero;stroke:none"
     id="text663"><tspan
       x="0"
       y="0"
       id="tspan661">0</tspan></text></g><g
   id="g665"
   transform="matrix(33.600135,0,0,-33.600135,698.56036,206.16084)"><text
     xml:space="preserve"
     transform="scale(1,-1)"
     style="font-variant:normal;font-weight:normal;font-size:1px;font-family:Times;-inkscape-font-specification:Times-Roman;writing-mode:lr-tb;fill:#000000;fill-opacity:1;fill-rule:nonzero;stroke:none"
     id="text669"><tspan
       x="0 0.5 1"
       y="0"
       sodipodi:role="line"
       id="tspan667">200</tspan></text></g><g
   id="g671"
   transform="matrix(33.600135,0,0,-33.600135,698.56036,101.16042)"><text
     xml:space="preserve"
     transform="scale(1,-1)"
     style="font-variant:normal;font-weight:normal;font-size:1px;font-family:Times;-inkscape-font-specification:Times-Roman;writing-mode:lr-tb;fill:#000000;fill-opacity:1;fill-rule:nonzero;stroke:none"
     id="text675"><tspan
       x="0 0.5 1"
       y="0"
       sodipodi:role="line"
       id="tspan673">400</tspan></text></g><g
   id="g677"
   transform="matrix(0,-33.600135,-33.600135,0,667.84023,415.92169)"><text
     xml:space="preserve"
     transform="scale(1,-1)"
     style="font-variant:normal;font-weight:normal;font-size:1px;font-family:Times;-inkscape-font-specification:Times-Roman;writing-mode:lr-tb;fill:#000000;fill-opacity:1;fill-rule:nonzero;stroke:none"
     id="text681"><tspan
       x="0 0.55599999 0.889 1.3329999 1.8329999 2.3329999 2.777 3.277 3.721 4.2210002 4.4710002 4.8039999 5.2480001"
       y="0"
       sodipodi:role="line"
       id="tspan679">Frequency (cm</tspan></text></g><g
   id="g683"
   transform="matrix(0,-23.760095,-23.760095,0,647.68015,213.36087)"><text
     xml:space="preserve"
     transform="scale(1,-1)"
     style="font-variant:normal;font-weight:normal;font-size:1px;font-family:Times;-inkscape-font-specification:Times-Roman;writing-mode:lr-tb;fill:#000000;fill-opacity:1;fill-rule:nonzero;stroke:none"
     id="text687"><tspan
       x="0 0.333"
       y="0"
       sodipodi:role="line"
       id="tspan685">-1</tspan></text></g><g
   id="g689"
   transform="matrix(0,-33.600135,-33.600135,0,667.84023,193.68079)"><text
     xml:space="preserve"
     transform="scale(1,-1)"
     style="font-variant:normal;font-weight:normal;font-size:1px;font-family:Times;-inkscape-font-specification:Times-Roman;writing-mode:lr-tb;fill:#000000;fill-opacity:1;fill-rule:nonzero;stroke:none"
     id="text693"><tspan
       x="0"
       y="0"
       id="tspan691">)</tspan></text></g><path
   d="M 760.0006,510.00206 V 90.000377 H 1120.002 V 510.00206 Z"
   style="fill:none;stroke:#000000;stroke-width:2.22001;stroke-linecap:butt;stroke-linejoin:miter;stroke-miterlimit:10;stroke-dasharray:none;stroke-opacity:1"
   id="path695" /></svg>
